<svg xmlns="http://www.w3.org/2000/svg" width="45.945" height="112.705" viewBox="0 0 45.945 112.705">
  <g id="Group_331" data-name="Group 331" transform="translate(20313.945 -2536.636)">
    <path id="Subtraction_3" data-name="Subtraction 3" d="M45.943,127.341a24.5,24.5,0,0,0-4.451-12.131,31.694,31.694,0,0,0-8.074-7.787c-3.5-1.583-7.457-3.378-11.227-5.545A41.646,41.646,0,0,1,8.068,92.15,30.339,30.339,0,0,1,0,70.993a31.492,31.492,0,0,1,2.78-13.251,31.114,31.114,0,0,1,6.667-9.32,39.721,39.721,0,0,1,8.043-5.972A46.748,46.748,0,0,1,24.4,39.243c4.7-1.731,20.162-8.621,21.549-24.607v112.7Z" transform="translate(-20313.945 2522)" fill="#0033bf"/>
    <path id="Path_17" data-name="Path 17" d="M.422-9.64a1.44,1.44,0,0,0,0,2.035l5.75,5.75a1.44,1.44,0,0,0,2.035,0,1.44,1.44,0,0,0,0-2.035l-3.3-3.3H21.563A1.436,1.436,0,0,0,23-8.625a1.436,1.436,0,0,0-1.437-1.437H4.91l3.3-3.3a1.44,1.44,0,0,0,0-2.035,1.44,1.44,0,0,0-2.035,0L.422-9.645Z" transform="translate(-20299 2602)" fill="#fff"/>
  </g>
</svg>
