<svg xmlns="http://www.w3.org/2000/svg" xmlns:xlink="http://www.w3.org/1999/xlink" width="774" height="681" viewBox="0 0 774 681">
  <defs>
    <clipPath id="clip-path">
      <rect id="Rectangle_255" data-name="Rectangle 255" width="774" height="681" transform="translate(666)" fill="#0033bf"/>
    </clipPath>
  </defs>
  <g id="Mask_Group_26" data-name="Mask Group 26" transform="translate(-666)" clip-path="url(#clip-path)">
    <g id="Group_4" data-name="Group 4" transform="translate(429.027 -373.591) rotate(14)" opacity="0.05">
      <path id="Union_1" data-name="Union 1" d="M352.989,1638c-36.36-20.691-69.017-49.61-97.082-85.954-47.215-61.161-77.9-140.853-78.211-203.109-.106-6.587-.113-8.506-.068-10.508.922-45.689,1.02-68.549.839-84.481q-.261-10.539-.416-21.477c-.219-9.209-.431-19.1-.431-34.894a53.814,53.814,0,0,0-107.628,0H0A123.749,123.749,0,0,1,212.616,1111.4a123.744,123.744,0,0,1,212.609,86.172H355.233a53.811,53.811,0,0,0-107.538-3.029q.1,20.578.415,39.94c.106,4.646.212,9.307.295,14.656,1.685,71.17,6.912,128.554,23.018,168.139,10.629,26.124,25.61,43.756,47.14,55.473,24.748,13.477,59.287,20.027,105.611,20.027,96.168,0,175.1-31.986,248.4-100.655a593.72,593.72,0,0,0,43.668-45.814C587.515,1199.047,501.7,1009.665,475.25,889.7c-26.607-120.7-34.161-286.019-34.471-293l69.553-6.844c.363,2.115,5.3,29.591,20.761,55.835,18.742,31.834,43.763,47.314,76.481,47.314h.581c35.128-.2,66.494-18,93.23-52.927a230.9,230.9,0,0,0,22.535-36.233v-8.686l.121-.016V577.432h76.987v30.46a185.229,185.229,0,0,0,19.362,33.194c10.743,14.512,22.951,25.859,36.284,33.73,16.2,9.571,33.859,14.074,54,13.772,35.921-.544,61.78-15.887,79.042-46.906a149.225,149.225,0,0,0,16.506-49.852l69.834,3.286c.007,3.437-.076,85.531-16.469,193.952-9.655,63.865-23.011,123.651-39.7,177.688-21.145,68.481-47.8,128.063-79.223,177.084-8.854,13.817-17.753,27.846-26.357,41.406-42.206,66.532-82.8,130.526-128.3,186.731-2.463,19.377-5.507,37.7-9.148,55.072-11.891,56.824-29.87,102.295-54.944,139.009-49.708,72.772-125.638,108.149-232.125,108.149A273.26,273.26,0,0,1,352.989,1638Zm136.8-33.783c42,0,76.345-6.224,105.029-19.029,28.337-12.661,51.008-31.827,69.3-58.608q17.224-25.213,29.425-59.786c-32.816,26.878-66.683,47.661-102.763,63.14-51.514,22.1-106.011,32.839-166.606,32.839a414.822,414.822,0,0,1-64.923-4.661C392.121,1583.926,435.287,1604.217,489.792,1604.217ZM543.6,874.631c13.417,60.881,43.642,139.024,82.925,214.4a1137.735,1137.735,0,0,0,97.33,155.409q.062-6.68.062-13.5V718.06c-33.764,29.315-72.982,44.706-115.379,44.931l-.967.008c-31.714,0-60.383-8.544-85.267-25.405C527.323,782.92,534.243,832.2,543.6,874.631Zm257.267,357.477c18.109-27.245,36.061-55.548,54.332-84.354,8.65-13.628,17.595-27.725,26.539-41.678,50.486-78.77,87.994-191.618,108.474-326.344,2.372-15.607,4.39-30.686,6.1-45.047-24.34,15.373-52.768,23.4-84.587,23.887-.982.016-1.949.023-2.924.023-40.423,0-76.917-12.722-107.779-37.263v13.581h-.159ZM510.31,589.73l.023.129h0C510.319,589.783,510.312,589.74,510.31,589.73ZM744.181,513.65c-28.23-25.794-81.758-74.831-117.792-108.688a114.152,114.152,0,0,1-208.56-64.2h69.992a44.192,44.192,0,0,0,87.521,8.691c-22.465-34.977-35.032-78.151-35.032-121.978a227.472,227.472,0,1,1,454.944,0c0,49.336-15.785,95.958-45.937,136.421a44.181,44.181,0,0,0,81.829-23.135h69.992a114.138,114.138,0,0,1-201.008,74.082c-32.2,29.516-82.512,75.083-108.869,98.922L767.668,535.1ZM610.3,227.472c0,36.042,12.578,72.425,33.648,97.339,7.509,8.28,65.625,62.2,123.961,115.681,39.959-36.209,87.957-79.849,104.935-95.658q-.071-2.029-.072-4.076h4.41c.608-.58,1.082-1.041,1.415-1.375,30.966-32.673,46.671-70.324,46.671-111.912,0-86.838-70.649-157.48-157.487-157.48S610.3,140.633,610.3,227.472Z" transform="translate(0 0)" fill="#fff"/>
    </g>
  </g>
</svg>
