<svg xmlns="http://www.w3.org/2000/svg" xmlns:xlink="http://www.w3.org/1999/xlink" width="535" height="399" viewBox="0 0 535 399">
  <defs>
    <clipPath id="clip-path">
      <rect id="Rectangle_298" data-name="Rectangle 298" width="535" height="399" transform="translate(79 2816.686)" fill="#fff" stroke="#707070" stroke-width="1"/>
    </clipPath>
  </defs>
  <g id="Mask_Group_37" data-name="Mask Group 37" transform="translate(-79 -2816.686)" clip-path="url(#clip-path)">
    <g id="Group_332" data-name="Group 332" transform="translate(70.024 2816.378)">
      <path id="Union_644" data-name="Union 644" d="M259.933,10.4c-1.057-2.869-3.735-7.683-9.791-7.683V0c7.959,0,11.251,6.606,12.3,9.447.725,1.967,3.619,8.386,10.434,8.386v2.712C264.335,20.545,260.81,12.776,259.933,10.4ZM227.41,17.833c6.815,0,9.709-6.419,10.434-8.386C238.89,6.606,242.183,0,250.142,0V2.712c-6.057,0-8.734,4.814-9.791,7.683-.877,2.381-4.4,10.15-12.94,10.15ZM214.421,10.4c-1.057-2.869-3.735-7.683-9.791-7.683V0c7.959,0,11.251,6.606,12.3,9.447.725,1.967,3.619,8.386,10.434,8.386v2.712C218.823,20.545,215.3,12.776,214.421,10.4Zm-45.462,0c-1.057-2.869-3.735-7.683-9.791-7.683V0c7.959,0,11.252,6.606,12.3,9.447.725,1.967,3.619,8.386,10.434,8.386s9.709-6.419,10.434-8.386C193.379,6.606,196.671,0,204.63,0V2.712c-6.057,0-8.734,4.814-9.791,7.683-.877,2.381-4.4,10.15-12.94,10.15S169.836,12.776,168.959,10.4Zm-45.462,0c-1.057-2.869-3.735-7.683-9.791-7.683V0c7.959,0,11.252,6.606,12.3,9.447.725,1.967,3.619,8.386,10.434,8.386s9.709-6.419,10.433-8.386C147.916,6.606,151.209,0,159.168,0V2.712c-6.057,0-8.734,4.814-9.791,7.683-.877,2.381-4.4,10.15-12.94,10.15S124.374,12.776,123.5,10.4ZM90.974,17.833c6.815,0,9.709-6.419,10.434-8.386C102.454,6.606,105.747,0,113.705,0V2.712c-6.056,0-8.734,4.814-9.791,7.683-.877,2.381-4.4,10.15-12.94,10.15ZM77.985,10.4c-1.057-2.869-3.734-7.683-9.791-7.683V0c7.959,0,11.251,6.606,12.3,9.447.725,1.967,3.619,8.386,10.434,8.386v2.712C82.387,20.545,78.862,12.776,77.985,10.4Zm-45.462,0c-1.057-2.869-3.734-7.683-9.791-7.683V0c7.959,0,11.251,6.606,12.3,9.447.725,1.967,3.619,8.386,10.433,8.386S55.171,11.414,55.9,9.447C56.942,6.606,60.235,0,68.194,0V2.712c-6.057,0-8.734,4.814-9.791,7.683-.877,2.381-4.4,10.15-12.94,10.15S33.4,12.776,32.522,10.4ZM0,17.833c6.815,0,9.709-6.419,10.433-8.386C11.48,6.606,14.773,0,22.731,0V2.712C16.675,2.712,14,7.526,12.94,10.4c-.877,2.381-4.4,10.15-12.94,10.15Z" transform="translate(4.476)" fill="#0033bf"/>
      <path id="Union_645" data-name="Union 645" d="M259.933,10.4c-1.057-2.869-3.735-7.683-9.791-7.683V0c7.959,0,11.251,6.606,12.3,9.447.725,1.967,3.619,8.386,10.434,8.386v2.712C264.335,20.545,260.81,12.776,259.933,10.4ZM227.41,17.833c6.815,0,9.709-6.419,10.434-8.386C238.89,6.606,242.183,0,250.142,0V2.712c-6.057,0-8.734,4.814-9.791,7.683-.877,2.381-4.4,10.15-12.94,10.15ZM214.421,10.4c-1.057-2.869-3.735-7.683-9.791-7.683V0c7.959,0,11.251,6.606,12.3,9.447.725,1.967,3.619,8.386,10.434,8.386v2.712C218.823,20.545,215.3,12.776,214.421,10.4Zm-45.462,0c-1.057-2.869-3.735-7.683-9.791-7.683V0c7.959,0,11.252,6.606,12.3,9.447.725,1.967,3.619,8.386,10.434,8.386s9.709-6.419,10.434-8.386C193.379,6.606,196.671,0,204.63,0V2.712c-6.057,0-8.734,4.814-9.791,7.683-.877,2.381-4.4,10.15-12.94,10.15S169.836,12.776,168.959,10.4Zm-45.462,0c-1.057-2.869-3.735-7.683-9.791-7.683V0c7.959,0,11.252,6.606,12.3,9.447.725,1.967,3.619,8.386,10.434,8.386s9.709-6.419,10.433-8.386C147.916,6.606,151.209,0,159.168,0V2.712c-6.057,0-8.734,4.814-9.791,7.683-.877,2.381-4.4,10.15-12.94,10.15S124.374,12.776,123.5,10.4ZM90.974,17.833c6.815,0,9.709-6.419,10.434-8.386C102.454,6.606,105.747,0,113.705,0V2.712c-6.056,0-8.734,4.814-9.791,7.683-.877,2.381-4.4,10.15-12.94,10.15ZM77.985,10.4c-1.057-2.869-3.734-7.683-9.791-7.683V0c7.959,0,11.251,6.606,12.3,9.447.725,1.967,3.619,8.386,10.434,8.386v2.712C82.387,20.545,78.862,12.776,77.985,10.4Zm-45.462,0c-1.057-2.869-3.734-7.683-9.791-7.683V0c7.959,0,11.251,6.606,12.3,9.447.725,1.967,3.619,8.386,10.433,8.386S55.171,11.414,55.9,9.447C56.942,6.606,60.235,0,68.194,0V2.712c-6.057,0-8.734,4.814-9.791,7.683-.877,2.381-4.4,10.15-12.94,10.15S33.4,12.776,32.522,10.4ZM0,17.833c6.815,0,9.709-6.419,10.433-8.386C11.48,6.606,14.773,0,22.731,0V2.712C16.675,2.712,14,7.526,12.94,10.4c-.877,2.381-4.4,10.15-12.94,10.15Z" transform="translate(4.476 202.007)" fill="#0033bf"/>
      <path id="Union_646" data-name="Union 646" d="M259.933,10.4c-1.057-2.869-3.735-7.683-9.791-7.683V0c7.959,0,11.251,6.606,12.3,9.447.725,1.967,3.619,8.386,10.434,8.386v2.712C264.335,20.545,260.81,12.776,259.933,10.4ZM227.41,17.833c6.815,0,9.709-6.419,10.434-8.386C238.89,6.606,242.183,0,250.142,0V2.712c-6.057,0-8.734,4.814-9.791,7.683-.877,2.381-4.4,10.15-12.94,10.15ZM214.421,10.4c-1.057-2.869-3.735-7.683-9.791-7.683V0c7.959,0,11.251,6.606,12.3,9.447.725,1.967,3.619,8.386,10.434,8.386v2.712C218.823,20.545,215.3,12.776,214.421,10.4Zm-45.462,0c-1.057-2.869-3.735-7.683-9.791-7.683V0c7.959,0,11.252,6.606,12.3,9.447.725,1.967,3.619,8.386,10.434,8.386s9.709-6.419,10.434-8.386C193.379,6.606,196.671,0,204.63,0V2.712c-6.057,0-8.734,4.814-9.791,7.683-.877,2.381-4.4,10.15-12.94,10.15S169.836,12.776,168.959,10.4Zm-45.462,0c-1.057-2.869-3.735-7.683-9.791-7.683V0c7.959,0,11.252,6.606,12.3,9.447.725,1.967,3.619,8.386,10.434,8.386s9.709-6.419,10.433-8.386C147.916,6.606,151.209,0,159.168,0V2.712c-6.057,0-8.734,4.814-9.791,7.683-.877,2.381-4.4,10.15-12.94,10.15S124.374,12.776,123.5,10.4ZM90.974,17.833c6.815,0,9.709-6.419,10.434-8.386C102.454,6.606,105.747,0,113.705,0V2.712c-6.056,0-8.734,4.814-9.791,7.683-.877,2.381-4.4,10.15-12.94,10.15ZM77.985,10.4c-1.057-2.869-3.734-7.683-9.791-7.683V0c7.959,0,11.251,6.606,12.3,9.447.725,1.967,3.619,8.386,10.434,8.386v2.712C82.387,20.545,78.862,12.776,77.985,10.4Zm-45.462,0c-1.057-2.869-3.734-7.683-9.791-7.683V0c7.959,0,11.251,6.606,12.3,9.447.725,1.967,3.619,8.386,10.433,8.386S55.171,11.414,55.9,9.447C56.942,6.606,60.235,0,68.194,0V2.712c-6.057,0-8.734,4.814-9.791,7.683-.877,2.381-4.4,10.15-12.94,10.15S33.4,12.776,32.522,10.4ZM0,17.833c6.815,0,9.709-6.419,10.433-8.386C11.48,6.606,14.773,0,22.731,0V2.712C16.675,2.712,14,7.526,12.94,10.4c-.877,2.381-4.4,10.15-12.94,10.15Z" transform="translate(4.476 101.004)" fill="#0033bf"/>
      <path id="Union_647" data-name="Union 647" d="M259.933,10.4c-1.057-2.869-3.735-7.683-9.791-7.683V0c7.959,0,11.251,6.606,12.3,9.447.725,1.967,3.619,8.386,10.434,8.386v2.712C264.335,20.545,260.81,12.776,259.933,10.4ZM227.41,17.833c6.815,0,9.709-6.419,10.434-8.386C238.89,6.606,242.183,0,250.142,0V2.712c-6.057,0-8.734,4.814-9.791,7.683-.877,2.381-4.4,10.15-12.94,10.15ZM214.421,10.4c-1.057-2.869-3.735-7.683-9.791-7.683V0c7.959,0,11.251,6.606,12.3,9.447.725,1.967,3.619,8.386,10.434,8.386v2.712C218.823,20.545,215.3,12.776,214.421,10.4Zm-45.462,0c-1.057-2.869-3.735-7.683-9.791-7.683V0c7.959,0,11.252,6.606,12.3,9.447.725,1.967,3.619,8.386,10.434,8.386s9.709-6.419,10.434-8.386C193.379,6.606,196.671,0,204.63,0V2.712c-6.057,0-8.734,4.814-9.791,7.683-.877,2.381-4.4,10.15-12.94,10.15S169.836,12.776,168.959,10.4Zm-45.462,0c-1.057-2.869-3.735-7.683-9.791-7.683V0c7.959,0,11.252,6.606,12.3,9.447.725,1.967,3.619,8.386,10.434,8.386s9.709-6.419,10.433-8.386C147.916,6.606,151.209,0,159.168,0V2.712c-6.057,0-8.734,4.814-9.791,7.683-.877,2.381-4.4,10.15-12.94,10.15S124.374,12.776,123.5,10.4ZM90.974,17.833c6.815,0,9.709-6.419,10.434-8.386C102.454,6.606,105.747,0,113.705,0V2.712c-6.056,0-8.734,4.814-9.791,7.683-.877,2.381-4.4,10.15-12.94,10.15ZM77.985,10.4c-1.057-2.869-3.734-7.683-9.791-7.683V0c7.959,0,11.251,6.606,12.3,9.447.725,1.967,3.619,8.386,10.434,8.386v2.712C82.387,20.545,78.862,12.776,77.985,10.4Zm-45.462,0c-1.057-2.869-3.734-7.683-9.791-7.683V0c7.959,0,11.251,6.606,12.3,9.447.725,1.967,3.619,8.386,10.433,8.386S55.171,11.414,55.9,9.447C56.942,6.606,60.235,0,68.194,0V2.712c-6.057,0-8.734,4.814-9.791,7.683-.877,2.381-4.4,10.15-12.94,10.15S33.4,12.776,32.522,10.4ZM0,17.833c6.815,0,9.709-6.419,10.433-8.386C11.48,6.606,14.773,0,22.731,0V2.712C16.675,2.712,14,7.526,12.94,10.4c-.877,2.381-4.4,10.15-12.94,10.15Z" transform="translate(4.476 303.011)" fill="#0033bf"/>
      <path id="Union_648" data-name="Union 648" d="M259.933,10.4c-1.057-2.869-3.735-7.683-9.791-7.683V0c7.959,0,11.251,6.606,12.3,9.447.725,1.967,3.619,8.386,10.434,8.386v2.712C264.335,20.545,260.81,12.776,259.933,10.4ZM227.41,17.833c6.815,0,9.709-6.419,10.434-8.386C238.89,6.606,242.183,0,250.142,0V2.712c-6.057,0-8.734,4.814-9.791,7.683-.877,2.381-4.4,10.15-12.94,10.15ZM214.421,10.4c-1.057-2.869-3.735-7.683-9.791-7.683V0c7.959,0,11.251,6.606,12.3,9.447.725,1.967,3.619,8.386,10.434,8.386v2.712C218.823,20.545,215.3,12.776,214.421,10.4Zm-45.462,0c-1.057-2.869-3.735-7.683-9.791-7.683V0c7.959,0,11.252,6.606,12.3,9.447.725,1.967,3.619,8.386,10.434,8.386s9.709-6.419,10.434-8.386C193.379,6.606,196.671,0,204.63,0V2.712c-6.057,0-8.734,4.814-9.791,7.683-.877,2.381-4.4,10.15-12.94,10.15S169.836,12.776,168.959,10.4Zm-45.462,0c-1.057-2.869-3.735-7.683-9.791-7.683V0c7.959,0,11.252,6.606,12.3,9.447.725,1.967,3.619,8.386,10.434,8.386s9.709-6.419,10.433-8.386C147.916,6.606,151.209,0,159.168,0V2.712c-6.057,0-8.734,4.814-9.791,7.683-.877,2.381-4.4,10.15-12.94,10.15S124.374,12.776,123.5,10.4ZM90.974,17.833c6.815,0,9.709-6.419,10.434-8.386C102.454,6.606,105.747,0,113.705,0V2.712c-6.056,0-8.734,4.814-9.791,7.683-.877,2.381-4.4,10.15-12.94,10.15ZM77.985,10.4c-1.057-2.869-3.734-7.683-9.791-7.683V0c7.959,0,11.251,6.606,12.3,9.447.725,1.967,3.619,8.386,10.434,8.386v2.712C82.387,20.545,78.862,12.776,77.985,10.4Zm-45.462,0c-1.057-2.869-3.734-7.683-9.791-7.683V0c7.959,0,11.251,6.606,12.3,9.447.725,1.967,3.619,8.386,10.433,8.386S55.171,11.414,55.9,9.447C56.942,6.606,60.235,0,68.194,0V2.712c-6.057,0-8.734,4.814-9.791,7.683-.877,2.381-4.4,10.15-12.94,10.15S33.4,12.776,32.522,10.4ZM0,17.833c6.815,0,9.709-6.419,10.433-8.386C11.48,6.606,14.773,0,22.731,0V2.712C16.675,2.712,14,7.526,12.94,10.4c-.877,2.381-4.4,10.15-12.94,10.15Z" transform="translate(4.476 50.502)" fill="#0033bf"/>
      <path id="Union_649" data-name="Union 649" d="M259.933,10.4c-1.057-2.869-3.735-7.683-9.791-7.683V0c7.959,0,11.251,6.606,12.3,9.447.725,1.967,3.619,8.386,10.434,8.386v2.712C264.335,20.545,260.81,12.776,259.933,10.4ZM227.41,17.833c6.815,0,9.709-6.419,10.434-8.386C238.89,6.606,242.183,0,250.142,0V2.712c-6.057,0-8.734,4.814-9.791,7.683-.877,2.381-4.4,10.15-12.94,10.15ZM214.421,10.4c-1.057-2.869-3.735-7.683-9.791-7.683V0c7.959,0,11.251,6.606,12.3,9.447.725,1.967,3.619,8.386,10.434,8.386v2.712C218.823,20.545,215.3,12.776,214.421,10.4Zm-45.462,0c-1.057-2.869-3.735-7.683-9.791-7.683V0c7.959,0,11.252,6.606,12.3,9.447.725,1.967,3.619,8.386,10.434,8.386s9.709-6.419,10.434-8.386C193.379,6.606,196.671,0,204.63,0V2.712c-6.057,0-8.734,4.814-9.791,7.683-.877,2.381-4.4,10.15-12.94,10.15S169.836,12.776,168.959,10.4Zm-45.462,0c-1.057-2.869-3.735-7.683-9.791-7.683V0c7.959,0,11.252,6.606,12.3,9.447.725,1.967,3.619,8.386,10.434,8.386s9.709-6.419,10.433-8.386C147.916,6.606,151.209,0,159.168,0V2.712c-6.057,0-8.734,4.814-9.791,7.683-.877,2.381-4.4,10.15-12.94,10.15S124.374,12.776,123.5,10.4ZM90.974,17.833c6.815,0,9.709-6.419,10.434-8.386C102.454,6.606,105.747,0,113.705,0V2.712c-6.056,0-8.734,4.814-9.791,7.683-.877,2.381-4.4,10.15-12.94,10.15ZM77.985,10.4c-1.057-2.869-3.734-7.683-9.791-7.683V0c7.959,0,11.251,6.606,12.3,9.447.725,1.967,3.619,8.386,10.434,8.386v2.712C82.387,20.545,78.862,12.776,77.985,10.4Zm-45.462,0c-1.057-2.869-3.734-7.683-9.791-7.683V0c7.959,0,11.251,6.606,12.3,9.447.725,1.967,3.619,8.386,10.433,8.386S55.171,11.414,55.9,9.447C56.942,6.606,60.235,0,68.194,0V2.712c-6.057,0-8.734,4.814-9.791,7.683-.877,2.381-4.4,10.15-12.94,10.15S33.4,12.776,32.522,10.4ZM0,17.833c6.815,0,9.709-6.419,10.433-8.386C11.48,6.606,14.773,0,22.731,0V2.712C16.675,2.712,14,7.526,12.94,10.4c-.877,2.381-4.4,10.15-12.94,10.15Z" transform="translate(4.476 252.509)" fill="#0033bf"/>
      <path id="Union_650" data-name="Union 650" d="M259.933,10.4c-1.057-2.869-3.735-7.683-9.791-7.683V0c7.959,0,11.251,6.606,12.3,9.447.725,1.967,3.619,8.386,10.434,8.386v2.712C264.335,20.545,260.81,12.776,259.933,10.4ZM227.41,17.833c6.815,0,9.709-6.419,10.434-8.386C238.89,6.606,242.183,0,250.142,0V2.712c-6.057,0-8.734,4.814-9.791,7.683-.877,2.381-4.4,10.15-12.94,10.15ZM214.421,10.4c-1.057-2.869-3.735-7.683-9.791-7.683V0c7.959,0,11.251,6.606,12.3,9.447.725,1.967,3.619,8.386,10.434,8.386v2.712C218.823,20.545,215.3,12.776,214.421,10.4Zm-45.462,0c-1.057-2.869-3.735-7.683-9.791-7.683V0c7.959,0,11.252,6.606,12.3,9.447.725,1.967,3.619,8.386,10.434,8.386s9.709-6.419,10.434-8.386C193.379,6.606,196.671,0,204.63,0V2.712c-6.057,0-8.734,4.814-9.791,7.683-.877,2.381-4.4,10.15-12.94,10.15S169.836,12.776,168.959,10.4Zm-45.462,0c-1.057-2.869-3.735-7.683-9.791-7.683V0c7.959,0,11.252,6.606,12.3,9.447.725,1.967,3.619,8.386,10.434,8.386s9.709-6.419,10.433-8.386C147.916,6.606,151.209,0,159.168,0V2.712c-6.057,0-8.734,4.814-9.791,7.683-.877,2.381-4.4,10.15-12.94,10.15S124.374,12.776,123.5,10.4ZM90.974,17.833c6.815,0,9.709-6.419,10.434-8.386C102.454,6.606,105.747,0,113.705,0V2.712c-6.056,0-8.734,4.814-9.791,7.683-.877,2.381-4.4,10.15-12.94,10.15ZM77.985,10.4c-1.057-2.869-3.734-7.683-9.791-7.683V0c7.959,0,11.251,6.606,12.3,9.447.725,1.967,3.619,8.386,10.434,8.386v2.712C82.387,20.545,78.862,12.776,77.985,10.4Zm-45.462,0c-1.057-2.869-3.734-7.683-9.791-7.683V0c7.959,0,11.251,6.606,12.3,9.447.725,1.967,3.619,8.386,10.433,8.386S55.171,11.414,55.9,9.447C56.942,6.606,60.235,0,68.194,0V2.712c-6.057,0-8.734,4.814-9.791,7.683-.877,2.381-4.4,10.15-12.94,10.15S33.4,12.776,32.522,10.4ZM0,17.833c6.815,0,9.709-6.419,10.433-8.386C11.48,6.606,14.773,0,22.731,0V2.712C16.675,2.712,14,7.526,12.94,10.4c-.877,2.381-4.4,10.15-12.94,10.15Z" transform="translate(4.476 151.505)" fill="#0033bf"/>
      <path id="Union_651" data-name="Union 651" d="M259.933,10.4c-1.057-2.869-3.735-7.683-9.791-7.683V0c7.959,0,11.251,6.606,12.3,9.447.725,1.967,3.619,8.386,10.434,8.386v2.712C264.335,20.545,260.81,12.776,259.933,10.4ZM227.41,17.833c6.815,0,9.709-6.419,10.434-8.386C238.89,6.606,242.183,0,250.142,0V2.712c-6.057,0-8.734,4.814-9.791,7.683-.877,2.381-4.4,10.15-12.94,10.15ZM214.421,10.4c-1.057-2.869-3.735-7.683-9.791-7.683V0c7.959,0,11.251,6.606,12.3,9.447.725,1.967,3.619,8.386,10.434,8.386v2.712C218.823,20.545,215.3,12.776,214.421,10.4Zm-45.462,0c-1.057-2.869-3.735-7.683-9.791-7.683V0c7.959,0,11.252,6.606,12.3,9.447.725,1.967,3.619,8.386,10.434,8.386s9.709-6.419,10.434-8.386C193.379,6.606,196.671,0,204.63,0V2.712c-6.057,0-8.734,4.814-9.791,7.683-.877,2.381-4.4,10.15-12.94,10.15S169.836,12.776,168.959,10.4Zm-45.462,0c-1.057-2.869-3.735-7.683-9.791-7.683V0c7.959,0,11.252,6.606,12.3,9.447.725,1.967,3.619,8.386,10.434,8.386s9.709-6.419,10.433-8.386C147.916,6.606,151.209,0,159.168,0V2.712c-6.057,0-8.734,4.814-9.791,7.683-.877,2.381-4.4,10.15-12.94,10.15S124.374,12.776,123.5,10.4ZM90.974,17.833c6.815,0,9.709-6.419,10.434-8.386C102.454,6.606,105.747,0,113.705,0V2.712c-6.056,0-8.734,4.814-9.791,7.683-.877,2.381-4.4,10.15-12.94,10.15ZM77.985,10.4c-1.057-2.869-3.734-7.683-9.791-7.683V0c7.959,0,11.251,6.606,12.3,9.447.725,1.967,3.619,8.386,10.434,8.386v2.712C82.387,20.545,78.862,12.776,77.985,10.4Zm-45.462,0c-1.057-2.869-3.734-7.683-9.791-7.683V0c7.959,0,11.251,6.606,12.3,9.447.725,1.967,3.619,8.386,10.433,8.386S55.171,11.414,55.9,9.447C56.942,6.606,60.235,0,68.194,0V2.712c-6.057,0-8.734,4.814-9.791,7.683-.877,2.381-4.4,10.15-12.94,10.15S33.4,12.776,32.522,10.4ZM0,17.833c6.815,0,9.709-6.419,10.433-8.386C11.48,6.606,14.773,0,22.731,0V2.712C16.675,2.712,14,7.526,12.94,10.4c-.877,2.381-4.4,10.15-12.94,10.15Z" transform="translate(4.476 353.512)" fill="#0033bf"/>
      <path id="Union_652" data-name="Union 652" d="M259.933,10.4c-1.057-2.869-3.735-7.683-9.791-7.683V0c7.959,0,11.251,6.606,12.3,9.447.725,1.967,3.619,8.386,10.434,8.386v2.712C264.335,20.545,260.81,12.776,259.933,10.4ZM227.41,17.833c6.815,0,9.709-6.419,10.434-8.386C238.89,6.606,242.183,0,250.142,0V2.712c-6.057,0-8.734,4.814-9.791,7.683-.877,2.381-4.4,10.15-12.94,10.15ZM214.421,10.4c-1.057-2.869-3.735-7.683-9.791-7.683V0c7.959,0,11.251,6.606,12.3,9.447.725,1.967,3.619,8.386,10.434,8.386v2.712C218.823,20.545,215.3,12.776,214.421,10.4Zm-45.462,0c-1.057-2.869-3.735-7.683-9.791-7.683V0c7.959,0,11.252,6.606,12.3,9.447.725,1.967,3.619,8.386,10.434,8.386s9.709-6.419,10.434-8.386C193.379,6.606,196.671,0,204.63,0V2.712c-6.057,0-8.734,4.814-9.791,7.683-.877,2.381-4.4,10.15-12.94,10.15S169.836,12.776,168.959,10.4Zm-45.462,0c-1.057-2.869-3.735-7.683-9.791-7.683V0c7.959,0,11.252,6.606,12.3,9.447.725,1.967,3.619,8.386,10.434,8.386s9.709-6.419,10.433-8.386C147.916,6.606,151.209,0,159.168,0V2.712c-6.057,0-8.734,4.814-9.791,7.683-.877,2.381-4.4,10.15-12.94,10.15S124.374,12.776,123.5,10.4ZM90.974,17.833c6.815,0,9.709-6.419,10.434-8.386C102.454,6.606,105.747,0,113.705,0V2.712c-6.056,0-8.734,4.814-9.791,7.683-.877,2.381-4.4,10.15-12.94,10.15ZM77.985,10.4c-1.057-2.869-3.734-7.683-9.791-7.683V0c7.959,0,11.251,6.606,12.3,9.447.725,1.967,3.619,8.386,10.434,8.386v2.712C82.387,20.545,78.862,12.776,77.985,10.4Zm-45.462,0c-1.057-2.869-3.734-7.683-9.791-7.683V0c7.959,0,11.251,6.606,12.3,9.447.725,1.967,3.619,8.386,10.433,8.386S55.171,11.414,55.9,9.447C56.942,6.606,60.235,0,68.194,0V2.712c-6.057,0-8.734,4.814-9.791,7.683-.877,2.381-4.4,10.15-12.94,10.15S33.4,12.776,32.522,10.4ZM0,17.833c6.815,0,9.709-6.419,10.433-8.386C11.48,6.606,14.773,0,22.731,0V2.712C16.675,2.712,14,7.526,12.94,10.4c-.877,2.381-4.4,10.15-12.94,10.15Z" transform="translate(0 25.251)" fill="#0033bf"/>
      <path id="Union_653" data-name="Union 653" d="M259.933,10.4c-1.057-2.869-3.735-7.683-9.791-7.683V0c7.959,0,11.251,6.606,12.3,9.447.725,1.967,3.619,8.386,10.434,8.386v2.712C264.335,20.545,260.81,12.776,259.933,10.4ZM227.41,17.833c6.815,0,9.709-6.419,10.434-8.386C238.89,6.606,242.183,0,250.142,0V2.712c-6.057,0-8.734,4.814-9.791,7.683-.877,2.381-4.4,10.15-12.94,10.15ZM214.421,10.4c-1.057-2.869-3.735-7.683-9.791-7.683V0c7.959,0,11.251,6.606,12.3,9.447.725,1.967,3.619,8.386,10.434,8.386v2.712C218.823,20.545,215.3,12.776,214.421,10.4Zm-45.462,0c-1.057-2.869-3.735-7.683-9.791-7.683V0c7.959,0,11.252,6.606,12.3,9.447.725,1.967,3.619,8.386,10.434,8.386s9.709-6.419,10.434-8.386C193.379,6.606,196.671,0,204.63,0V2.712c-6.057,0-8.734,4.814-9.791,7.683-.877,2.381-4.4,10.15-12.94,10.15S169.836,12.776,168.959,10.4Zm-45.462,0c-1.057-2.869-3.735-7.683-9.791-7.683V0c7.959,0,11.252,6.606,12.3,9.447.725,1.967,3.619,8.386,10.434,8.386s9.709-6.419,10.433-8.386C147.916,6.606,151.209,0,159.168,0V2.712c-6.057,0-8.734,4.814-9.791,7.683-.877,2.381-4.4,10.15-12.94,10.15S124.374,12.776,123.5,10.4ZM90.974,17.833c6.815,0,9.709-6.419,10.434-8.386C102.454,6.606,105.747,0,113.705,0V2.712c-6.056,0-8.734,4.814-9.791,7.683-.877,2.381-4.4,10.15-12.94,10.15ZM77.985,10.4c-1.057-2.869-3.734-7.683-9.791-7.683V0c7.959,0,11.251,6.606,12.3,9.447.725,1.967,3.619,8.386,10.434,8.386v2.712C82.387,20.545,78.862,12.776,77.985,10.4Zm-45.462,0c-1.057-2.869-3.734-7.683-9.791-7.683V0c7.959,0,11.251,6.606,12.3,9.447.725,1.967,3.619,8.386,10.433,8.386S55.171,11.414,55.9,9.447C56.942,6.606,60.235,0,68.194,0V2.712c-6.057,0-8.734,4.814-9.791,7.683-.877,2.381-4.4,10.15-12.94,10.15S33.4,12.776,32.522,10.4ZM0,17.833c6.815,0,9.709-6.419,10.433-8.386C11.48,6.606,14.773,0,22.731,0V2.712C16.675,2.712,14,7.526,12.94,10.4c-.877,2.381-4.4,10.15-12.94,10.15Z" transform="translate(0 227.258)" fill="#0033bf"/>
      <path id="Union_654" data-name="Union 654" d="M259.933,10.4c-1.057-2.869-3.735-7.683-9.791-7.683V0c7.959,0,11.251,6.606,12.3,9.447.725,1.967,3.619,8.386,10.434,8.386v2.712C264.335,20.545,260.81,12.776,259.933,10.4ZM227.41,17.833c6.815,0,9.709-6.419,10.434-8.386C238.89,6.606,242.183,0,250.142,0V2.712c-6.057,0-8.734,4.814-9.791,7.683-.877,2.381-4.4,10.15-12.94,10.15ZM214.421,10.4c-1.057-2.869-3.735-7.683-9.791-7.683V0c7.959,0,11.251,6.606,12.3,9.447.725,1.967,3.619,8.386,10.434,8.386v2.712C218.823,20.545,215.3,12.776,214.421,10.4Zm-45.462,0c-1.057-2.869-3.735-7.683-9.791-7.683V0c7.959,0,11.252,6.606,12.3,9.447.725,1.967,3.619,8.386,10.434,8.386s9.709-6.419,10.434-8.386C193.379,6.606,196.671,0,204.63,0V2.712c-6.057,0-8.734,4.814-9.791,7.683-.877,2.381-4.4,10.15-12.94,10.15S169.836,12.776,168.959,10.4Zm-45.462,0c-1.057-2.869-3.735-7.683-9.791-7.683V0c7.959,0,11.252,6.606,12.3,9.447.725,1.967,3.619,8.386,10.434,8.386s9.709-6.419,10.433-8.386C147.916,6.606,151.209,0,159.168,0V2.712c-6.057,0-8.734,4.814-9.791,7.683-.877,2.381-4.4,10.15-12.94,10.15S124.374,12.776,123.5,10.4ZM90.974,17.833c6.815,0,9.709-6.419,10.434-8.386C102.454,6.606,105.747,0,113.705,0V2.712c-6.056,0-8.734,4.814-9.791,7.683-.877,2.381-4.4,10.15-12.94,10.15ZM77.985,10.4c-1.057-2.869-3.734-7.683-9.791-7.683V0c7.959,0,11.251,6.606,12.3,9.447.725,1.967,3.619,8.386,10.434,8.386v2.712C82.387,20.545,78.862,12.776,77.985,10.4Zm-45.462,0c-1.057-2.869-3.734-7.683-9.791-7.683V0c7.959,0,11.251,6.606,12.3,9.447.725,1.967,3.619,8.386,10.433,8.386S55.171,11.414,55.9,9.447C56.942,6.606,60.235,0,68.194,0V2.712c-6.057,0-8.734,4.814-9.791,7.683-.877,2.381-4.4,10.15-12.94,10.15S33.4,12.776,32.522,10.4ZM0,17.833c6.815,0,9.709-6.419,10.433-8.386C11.48,6.606,14.773,0,22.731,0V2.712C16.675,2.712,14,7.526,12.94,10.4c-.877,2.381-4.4,10.15-12.94,10.15Z" transform="translate(0 126.255)" fill="#0033bf"/>
      <path id="Union_655" data-name="Union 655" d="M259.933,10.4c-1.057-2.869-3.735-7.683-9.791-7.683V0c7.959,0,11.251,6.606,12.3,9.447.725,1.967,3.619,8.386,10.434,8.386v2.712C264.335,20.545,260.81,12.776,259.933,10.4ZM227.41,17.833c6.815,0,9.709-6.419,10.434-8.386C238.89,6.606,242.183,0,250.142,0V2.712c-6.057,0-8.734,4.814-9.791,7.683-.877,2.381-4.4,10.15-12.94,10.15ZM214.421,10.4c-1.057-2.869-3.735-7.683-9.791-7.683V0c7.959,0,11.251,6.606,12.3,9.447.725,1.967,3.619,8.386,10.434,8.386v2.712C218.823,20.545,215.3,12.776,214.421,10.4Zm-45.462,0c-1.057-2.869-3.735-7.683-9.791-7.683V0c7.959,0,11.252,6.606,12.3,9.447.725,1.967,3.619,8.386,10.434,8.386s9.709-6.419,10.434-8.386C193.379,6.606,196.671,0,204.63,0V2.712c-6.057,0-8.734,4.814-9.791,7.683-.877,2.381-4.4,10.15-12.94,10.15S169.836,12.776,168.959,10.4Zm-45.462,0c-1.057-2.869-3.735-7.683-9.791-7.683V0c7.959,0,11.252,6.606,12.3,9.447.725,1.967,3.619,8.386,10.434,8.386s9.709-6.419,10.433-8.386C147.916,6.606,151.209,0,159.168,0V2.712c-6.057,0-8.734,4.814-9.791,7.683-.877,2.381-4.4,10.15-12.94,10.15S124.374,12.776,123.5,10.4ZM90.974,17.833c6.815,0,9.709-6.419,10.434-8.386C102.454,6.606,105.747,0,113.705,0V2.712c-6.056,0-8.734,4.814-9.791,7.683-.877,2.381-4.4,10.15-12.94,10.15ZM77.985,10.4c-1.057-2.869-3.734-7.683-9.791-7.683V0c7.959,0,11.251,6.606,12.3,9.447.725,1.967,3.619,8.386,10.434,8.386v2.712C82.387,20.545,78.862,12.776,77.985,10.4Zm-45.462,0c-1.057-2.869-3.734-7.683-9.791-7.683V0c7.959,0,11.251,6.606,12.3,9.447.725,1.967,3.619,8.386,10.433,8.386S55.171,11.414,55.9,9.447C56.942,6.606,60.235,0,68.194,0V2.712c-6.057,0-8.734,4.814-9.791,7.683-.877,2.381-4.4,10.15-12.94,10.15S33.4,12.776,32.522,10.4ZM0,17.833c6.815,0,9.709-6.419,10.433-8.386C11.48,6.606,14.773,0,22.731,0V2.712C16.675,2.712,14,7.526,12.94,10.4c-.877,2.381-4.4,10.15-12.94,10.15Z" transform="translate(0 328.262)" fill="#0033bf"/>
      <path id="Union_656" data-name="Union 656" d="M259.933,10.4c-1.057-2.869-3.735-7.683-9.791-7.683V0c7.959,0,11.251,6.606,12.3,9.447.725,1.967,3.619,8.386,10.434,8.386v2.712C264.335,20.545,260.81,12.776,259.933,10.4ZM227.41,17.833c6.815,0,9.709-6.419,10.434-8.386C238.89,6.606,242.183,0,250.142,0V2.712c-6.057,0-8.734,4.814-9.791,7.683-.877,2.381-4.4,10.15-12.94,10.15ZM214.421,10.4c-1.057-2.869-3.735-7.683-9.791-7.683V0c7.959,0,11.251,6.606,12.3,9.447.725,1.967,3.619,8.386,10.434,8.386v2.712C218.823,20.545,215.3,12.776,214.421,10.4Zm-45.462,0c-1.057-2.869-3.735-7.683-9.791-7.683V0c7.959,0,11.252,6.606,12.3,9.447.725,1.967,3.619,8.386,10.434,8.386s9.709-6.419,10.434-8.386C193.379,6.606,196.671,0,204.63,0V2.712c-6.057,0-8.734,4.814-9.791,7.683-.877,2.381-4.4,10.15-12.94,10.15S169.836,12.776,168.959,10.4Zm-45.462,0c-1.057-2.869-3.735-7.683-9.791-7.683V0c7.959,0,11.252,6.606,12.3,9.447.725,1.967,3.619,8.386,10.434,8.386s9.709-6.419,10.433-8.386C147.916,6.606,151.209,0,159.168,0V2.712c-6.057,0-8.734,4.814-9.791,7.683-.877,2.381-4.4,10.15-12.94,10.15S124.374,12.776,123.5,10.4ZM90.974,17.833c6.815,0,9.709-6.419,10.434-8.386C102.454,6.606,105.747,0,113.705,0V2.712c-6.056,0-8.734,4.814-9.791,7.683-.877,2.381-4.4,10.15-12.94,10.15ZM77.985,10.4c-1.057-2.869-3.734-7.683-9.791-7.683V0c7.959,0,11.251,6.606,12.3,9.447.725,1.967,3.619,8.386,10.434,8.386v2.712C82.387,20.545,78.862,12.776,77.985,10.4Zm-45.462,0c-1.057-2.869-3.734-7.683-9.791-7.683V0c7.959,0,11.251,6.606,12.3,9.447.725,1.967,3.619,8.386,10.433,8.386S55.171,11.414,55.9,9.447C56.942,6.606,60.235,0,68.194,0V2.712c-6.057,0-8.734,4.814-9.791,7.683-.877,2.381-4.4,10.15-12.94,10.15S33.4,12.776,32.522,10.4ZM0,17.833c6.815,0,9.709-6.419,10.433-8.386C11.48,6.606,14.773,0,22.731,0V2.712C16.675,2.712,14,7.526,12.94,10.4c-.877,2.381-4.4,10.15-12.94,10.15Z" transform="translate(0 75.753)" fill="#0033bf"/>
      <path id="Union_657" data-name="Union 657" d="M259.933,10.4c-1.057-2.869-3.735-7.683-9.791-7.683V0c7.959,0,11.251,6.606,12.3,9.447.725,1.967,3.619,8.386,10.434,8.386v2.712C264.335,20.545,260.81,12.776,259.933,10.4ZM227.41,17.833c6.815,0,9.709-6.419,10.434-8.386C238.89,6.606,242.183,0,250.142,0V2.712c-6.057,0-8.734,4.814-9.791,7.683-.877,2.381-4.4,10.15-12.94,10.15ZM214.421,10.4c-1.057-2.869-3.735-7.683-9.791-7.683V0c7.959,0,11.251,6.606,12.3,9.447.725,1.967,3.619,8.386,10.434,8.386v2.712C218.823,20.545,215.3,12.776,214.421,10.4Zm-45.462,0c-1.057-2.869-3.735-7.683-9.791-7.683V0c7.959,0,11.252,6.606,12.3,9.447.725,1.967,3.619,8.386,10.434,8.386s9.709-6.419,10.434-8.386C193.379,6.606,196.671,0,204.63,0V2.712c-6.057,0-8.734,4.814-9.791,7.683-.877,2.381-4.4,10.15-12.94,10.15S169.836,12.776,168.959,10.4Zm-45.462,0c-1.057-2.869-3.735-7.683-9.791-7.683V0c7.959,0,11.252,6.606,12.3,9.447.725,1.967,3.619,8.386,10.434,8.386s9.709-6.419,10.433-8.386C147.916,6.606,151.209,0,159.168,0V2.712c-6.057,0-8.734,4.814-9.791,7.683-.877,2.381-4.4,10.15-12.94,10.15S124.374,12.776,123.5,10.4ZM90.974,17.833c6.815,0,9.709-6.419,10.434-8.386C102.454,6.606,105.747,0,113.705,0V2.712c-6.056,0-8.734,4.814-9.791,7.683-.877,2.381-4.4,10.15-12.94,10.15ZM77.985,10.4c-1.057-2.869-3.734-7.683-9.791-7.683V0c7.959,0,11.251,6.606,12.3,9.447.725,1.967,3.619,8.386,10.434,8.386v2.712C82.387,20.545,78.862,12.776,77.985,10.4Zm-45.462,0c-1.057-2.869-3.734-7.683-9.791-7.683V0c7.959,0,11.251,6.606,12.3,9.447.725,1.967,3.619,8.386,10.433,8.386S55.171,11.414,55.9,9.447C56.942,6.606,60.235,0,68.194,0V2.712c-6.057,0-8.734,4.814-9.791,7.683-.877,2.381-4.4,10.15-12.94,10.15S33.4,12.776,32.522,10.4ZM0,17.833c6.815,0,9.709-6.419,10.433-8.386C11.48,6.606,14.773,0,22.731,0V2.712C16.675,2.712,14,7.526,12.94,10.4c-.877,2.381-4.4,10.15-12.94,10.15Z" transform="translate(0 277.76)" fill="#0033bf"/>
      <path id="Union_658" data-name="Union 658" d="M259.933,10.4c-1.057-2.869-3.735-7.683-9.791-7.683V0c7.959,0,11.251,6.606,12.3,9.447.725,1.967,3.619,8.386,10.434,8.386v2.712C264.335,20.545,260.81,12.776,259.933,10.4ZM227.41,17.833c6.815,0,9.709-6.419,10.434-8.386C238.89,6.606,242.183,0,250.142,0V2.712c-6.057,0-8.734,4.814-9.791,7.683-.877,2.381-4.4,10.15-12.94,10.15ZM214.421,10.4c-1.057-2.869-3.735-7.683-9.791-7.683V0c7.959,0,11.251,6.606,12.3,9.447.725,1.967,3.619,8.386,10.434,8.386v2.712C218.823,20.545,215.3,12.776,214.421,10.4Zm-45.462,0c-1.057-2.869-3.735-7.683-9.791-7.683V0c7.959,0,11.252,6.606,12.3,9.447.725,1.967,3.619,8.386,10.434,8.386s9.709-6.419,10.434-8.386C193.379,6.606,196.671,0,204.63,0V2.712c-6.057,0-8.734,4.814-9.791,7.683-.877,2.381-4.4,10.15-12.94,10.15S169.836,12.776,168.959,10.4Zm-45.462,0c-1.057-2.869-3.735-7.683-9.791-7.683V0c7.959,0,11.252,6.606,12.3,9.447.725,1.967,3.619,8.386,10.434,8.386s9.709-6.419,10.433-8.386C147.916,6.606,151.209,0,159.168,0V2.712c-6.057,0-8.734,4.814-9.791,7.683-.877,2.381-4.4,10.15-12.94,10.15S124.374,12.776,123.5,10.4ZM90.974,17.833c6.815,0,9.709-6.419,10.434-8.386C102.454,6.606,105.747,0,113.705,0V2.712c-6.056,0-8.734,4.814-9.791,7.683-.877,2.381-4.4,10.15-12.94,10.15ZM77.985,10.4c-1.057-2.869-3.734-7.683-9.791-7.683V0c7.959,0,11.251,6.606,12.3,9.447.725,1.967,3.619,8.386,10.434,8.386v2.712C82.387,20.545,78.862,12.776,77.985,10.4Zm-45.462,0c-1.057-2.869-3.734-7.683-9.791-7.683V0c7.959,0,11.251,6.606,12.3,9.447.725,1.967,3.619,8.386,10.433,8.386S55.171,11.414,55.9,9.447C56.942,6.606,60.235,0,68.194,0V2.712c-6.057,0-8.734,4.814-9.791,7.683-.877,2.381-4.4,10.15-12.94,10.15S33.4,12.776,32.522,10.4ZM0,17.833c6.815,0,9.709-6.419,10.433-8.386C11.48,6.606,14.773,0,22.731,0V2.712C16.675,2.712,14,7.526,12.94,10.4c-.877,2.381-4.4,10.15-12.94,10.15Z" transform="translate(0 176.756)" fill="#0033bf"/>
      <path id="Union_659" data-name="Union 659" d="M259.933,10.4c-1.057-2.869-3.735-7.683-9.791-7.683V0c7.959,0,11.251,6.606,12.3,9.447.725,1.967,3.619,8.386,10.434,8.386v2.712C264.335,20.545,260.81,12.776,259.933,10.4ZM227.41,17.833c6.815,0,9.709-6.419,10.434-8.386C238.89,6.606,242.183,0,250.142,0V2.712c-6.057,0-8.734,4.814-9.791,7.683-.877,2.381-4.4,10.15-12.94,10.15ZM214.421,10.4c-1.057-2.869-3.735-7.683-9.791-7.683V0c7.959,0,11.251,6.606,12.3,9.447.725,1.967,3.619,8.386,10.434,8.386v2.712C218.823,20.545,215.3,12.776,214.421,10.4Zm-45.462,0c-1.057-2.869-3.735-7.683-9.791-7.683V0c7.959,0,11.252,6.606,12.3,9.447.725,1.967,3.619,8.386,10.434,8.386s9.709-6.419,10.434-8.386C193.379,6.606,196.671,0,204.63,0V2.712c-6.057,0-8.734,4.814-9.791,7.683-.877,2.381-4.4,10.15-12.94,10.15S169.836,12.776,168.959,10.4Zm-45.462,0c-1.057-2.869-3.735-7.683-9.791-7.683V0c7.959,0,11.252,6.606,12.3,9.447.725,1.967,3.619,8.386,10.434,8.386s9.709-6.419,10.433-8.386C147.916,6.606,151.209,0,159.168,0V2.712c-6.057,0-8.734,4.814-9.791,7.683-.877,2.381-4.4,10.15-12.94,10.15S124.374,12.776,123.5,10.4ZM90.974,17.833c6.815,0,9.709-6.419,10.434-8.386C102.454,6.606,105.747,0,113.705,0V2.712c-6.056,0-8.734,4.814-9.791,7.683-.877,2.381-4.4,10.15-12.94,10.15ZM77.985,10.4c-1.057-2.869-3.734-7.683-9.791-7.683V0c7.959,0,11.251,6.606,12.3,9.447.725,1.967,3.619,8.386,10.434,8.386v2.712C82.387,20.545,78.862,12.776,77.985,10.4Zm-45.462,0c-1.057-2.869-3.734-7.683-9.791-7.683V0c7.959,0,11.251,6.606,12.3,9.447.725,1.967,3.619,8.386,10.433,8.386S55.171,11.414,55.9,9.447C56.942,6.606,60.235,0,68.194,0V2.712c-6.057,0-8.734,4.814-9.791,7.683-.877,2.381-4.4,10.15-12.94,10.15S33.4,12.776,32.522,10.4ZM0,17.833c6.815,0,9.709-6.419,10.433-8.386C11.48,6.606,14.773,0,22.731,0V2.712C16.675,2.712,14,7.526,12.94,10.4c-.877,2.381-4.4,10.15-12.94,10.15Z" transform="translate(0 378.763)" fill="#0033bf"/>
      <path id="Union_660" data-name="Union 660" d="M259.933,10.4c-1.057-2.869-3.735-7.683-9.791-7.683V0c7.959,0,11.251,6.606,12.3,9.447.725,1.967,3.619,8.386,10.434,8.386v2.712C264.335,20.545,260.81,12.776,259.933,10.4ZM227.41,17.833c6.815,0,9.709-6.419,10.434-8.386C238.89,6.606,242.183,0,250.142,0V2.712c-6.057,0-8.734,4.814-9.791,7.683-.877,2.381-4.4,10.15-12.94,10.15ZM214.421,10.4c-1.057-2.869-3.735-7.683-9.791-7.683V0c7.959,0,11.251,6.606,12.3,9.447.725,1.967,3.619,8.386,10.434,8.386v2.712C218.823,20.545,215.3,12.776,214.421,10.4Zm-45.462,0c-1.057-2.869-3.735-7.683-9.791-7.683V0c7.959,0,11.252,6.606,12.3,9.447.725,1.967,3.619,8.386,10.434,8.386s9.709-6.419,10.434-8.386C193.379,6.606,196.671,0,204.63,0V2.712c-6.057,0-8.734,4.814-9.791,7.683-.877,2.381-4.4,10.15-12.94,10.15S169.836,12.776,168.959,10.4Zm-45.462,0c-1.057-2.869-3.735-7.683-9.791-7.683V0c7.959,0,11.252,6.606,12.3,9.447.725,1.967,3.619,8.386,10.434,8.386s9.709-6.419,10.433-8.386C147.916,6.606,151.209,0,159.168,0V2.712c-6.057,0-8.734,4.814-9.791,7.683-.877,2.381-4.4,10.15-12.94,10.15S124.374,12.776,123.5,10.4ZM90.974,17.833c6.815,0,9.709-6.419,10.434-8.386C102.454,6.606,105.747,0,113.705,0V2.712c-6.056,0-8.734,4.814-9.791,7.683-.877,2.381-4.4,10.15-12.94,10.15ZM77.985,10.4c-1.057-2.869-3.734-7.683-9.791-7.683V0c7.959,0,11.251,6.606,12.3,9.447.725,1.967,3.619,8.386,10.434,8.386v2.712C82.387,20.545,78.862,12.776,77.985,10.4Zm-45.462,0c-1.057-2.869-3.734-7.683-9.791-7.683V0c7.959,0,11.251,6.606,12.3,9.447.725,1.967,3.619,8.386,10.433,8.386S55.171,11.414,55.9,9.447C56.942,6.606,60.235,0,68.194,0V2.712c-6.057,0-8.734,4.814-9.791,7.683-.877,2.381-4.4,10.15-12.94,10.15S33.4,12.776,32.522,10.4ZM0,17.833c6.815,0,9.709-6.419,10.433-8.386C11.48,6.606,14.773,0,22.731,0V2.712C16.675,2.712,14,7.526,12.94,10.4c-.877,2.381-4.4,10.15-12.94,10.15Z" transform="translate(277.349)" fill="#0033bf"/>
      <path id="Union_661" data-name="Union 661" d="M259.933,10.4c-1.057-2.869-3.735-7.683-9.791-7.683V0c7.959,0,11.251,6.606,12.3,9.447.725,1.967,3.619,8.386,10.434,8.386v2.712C264.335,20.545,260.81,12.776,259.933,10.4ZM227.41,17.833c6.815,0,9.709-6.419,10.434-8.386C238.89,6.606,242.183,0,250.142,0V2.712c-6.057,0-8.734,4.814-9.791,7.683-.877,2.381-4.4,10.15-12.94,10.15ZM214.421,10.4c-1.057-2.869-3.735-7.683-9.791-7.683V0c7.959,0,11.251,6.606,12.3,9.447.725,1.967,3.619,8.386,10.434,8.386v2.712C218.823,20.545,215.3,12.776,214.421,10.4Zm-45.462,0c-1.057-2.869-3.735-7.683-9.791-7.683V0c7.959,0,11.252,6.606,12.3,9.447.725,1.967,3.619,8.386,10.434,8.386s9.709-6.419,10.434-8.386C193.379,6.606,196.671,0,204.63,0V2.712c-6.057,0-8.734,4.814-9.791,7.683-.877,2.381-4.4,10.15-12.94,10.15S169.836,12.776,168.959,10.4Zm-45.462,0c-1.057-2.869-3.735-7.683-9.791-7.683V0c7.959,0,11.252,6.606,12.3,9.447.725,1.967,3.619,8.386,10.434,8.386s9.709-6.419,10.433-8.386C147.916,6.606,151.209,0,159.168,0V2.712c-6.057,0-8.734,4.814-9.791,7.683-.877,2.381-4.4,10.15-12.94,10.15S124.374,12.776,123.5,10.4ZM90.974,17.833c6.815,0,9.709-6.419,10.434-8.386C102.454,6.606,105.747,0,113.705,0V2.712c-6.056,0-8.734,4.814-9.791,7.683-.877,2.381-4.4,10.15-12.94,10.15ZM77.985,10.4c-1.057-2.869-3.734-7.683-9.791-7.683V0c7.959,0,11.251,6.606,12.3,9.447.725,1.967,3.619,8.386,10.434,8.386v2.712C82.387,20.545,78.862,12.776,77.985,10.4Zm-45.462,0c-1.057-2.869-3.734-7.683-9.791-7.683V0c7.959,0,11.251,6.606,12.3,9.447.725,1.967,3.619,8.386,10.433,8.386S55.171,11.414,55.9,9.447C56.942,6.606,60.235,0,68.194,0V2.712c-6.057,0-8.734,4.814-9.791,7.683-.877,2.381-4.4,10.15-12.94,10.15S33.4,12.776,32.522,10.4ZM0,17.833c6.815,0,9.709-6.419,10.433-8.386C11.48,6.606,14.773,0,22.731,0V2.712C16.675,2.712,14,7.526,12.94,10.4c-.877,2.381-4.4,10.15-12.94,10.15Z" transform="translate(277.349 202.007)" fill="#0033bf"/>
      <path id="Union_662" data-name="Union 662" d="M259.933,10.4c-1.057-2.869-3.735-7.683-9.791-7.683V0c7.959,0,11.251,6.606,12.3,9.447.725,1.967,3.619,8.386,10.434,8.386v2.712C264.335,20.545,260.81,12.776,259.933,10.4ZM227.41,17.833c6.815,0,9.709-6.419,10.434-8.386C238.89,6.606,242.183,0,250.142,0V2.712c-6.057,0-8.734,4.814-9.791,7.683-.877,2.381-4.4,10.15-12.94,10.15ZM214.421,10.4c-1.057-2.869-3.735-7.683-9.791-7.683V0c7.959,0,11.251,6.606,12.3,9.447.725,1.967,3.619,8.386,10.434,8.386v2.712C218.823,20.545,215.3,12.776,214.421,10.4Zm-45.462,0c-1.057-2.869-3.735-7.683-9.791-7.683V0c7.959,0,11.252,6.606,12.3,9.447.725,1.967,3.619,8.386,10.434,8.386s9.709-6.419,10.434-8.386C193.379,6.606,196.671,0,204.63,0V2.712c-6.057,0-8.734,4.814-9.791,7.683-.877,2.381-4.4,10.15-12.94,10.15S169.836,12.776,168.959,10.4Zm-45.462,0c-1.057-2.869-3.735-7.683-9.791-7.683V0c7.959,0,11.252,6.606,12.3,9.447.725,1.967,3.619,8.386,10.434,8.386s9.709-6.419,10.433-8.386C147.916,6.606,151.209,0,159.168,0V2.712c-6.057,0-8.734,4.814-9.791,7.683-.877,2.381-4.4,10.15-12.94,10.15S124.374,12.776,123.5,10.4ZM90.974,17.833c6.815,0,9.709-6.419,10.434-8.386C102.454,6.606,105.747,0,113.705,0V2.712c-6.056,0-8.734,4.814-9.791,7.683-.877,2.381-4.4,10.15-12.94,10.15ZM77.985,10.4c-1.057-2.869-3.734-7.683-9.791-7.683V0c7.959,0,11.251,6.606,12.3,9.447.725,1.967,3.619,8.386,10.434,8.386v2.712C82.387,20.545,78.862,12.776,77.985,10.4Zm-45.462,0c-1.057-2.869-3.734-7.683-9.791-7.683V0c7.959,0,11.251,6.606,12.3,9.447.725,1.967,3.619,8.386,10.433,8.386S55.171,11.414,55.9,9.447C56.942,6.606,60.235,0,68.194,0V2.712c-6.057,0-8.734,4.814-9.791,7.683-.877,2.381-4.4,10.15-12.94,10.15S33.4,12.776,32.522,10.4ZM0,17.833c6.815,0,9.709-6.419,10.433-8.386C11.48,6.606,14.773,0,22.731,0V2.712C16.675,2.712,14,7.526,12.94,10.4c-.877,2.381-4.4,10.15-12.94,10.15Z" transform="translate(277.349 101.004)" fill="#0033bf"/>
      <path id="Union_663" data-name="Union 663" d="M259.933,10.4c-1.057-2.869-3.735-7.683-9.791-7.683V0c7.959,0,11.251,6.606,12.3,9.447.725,1.967,3.619,8.386,10.434,8.386v2.712C264.335,20.545,260.81,12.776,259.933,10.4ZM227.41,17.833c6.815,0,9.709-6.419,10.434-8.386C238.89,6.606,242.183,0,250.142,0V2.712c-6.057,0-8.734,4.814-9.791,7.683-.877,2.381-4.4,10.15-12.94,10.15ZM214.421,10.4c-1.057-2.869-3.735-7.683-9.791-7.683V0c7.959,0,11.251,6.606,12.3,9.447.725,1.967,3.619,8.386,10.434,8.386v2.712C218.823,20.545,215.3,12.776,214.421,10.4Zm-45.462,0c-1.057-2.869-3.735-7.683-9.791-7.683V0c7.959,0,11.252,6.606,12.3,9.447.725,1.967,3.619,8.386,10.434,8.386s9.709-6.419,10.434-8.386C193.379,6.606,196.671,0,204.63,0V2.712c-6.057,0-8.734,4.814-9.791,7.683-.877,2.381-4.4,10.15-12.94,10.15S169.836,12.776,168.959,10.4Zm-45.462,0c-1.057-2.869-3.735-7.683-9.791-7.683V0c7.959,0,11.252,6.606,12.3,9.447.725,1.967,3.619,8.386,10.434,8.386s9.709-6.419,10.433-8.386C147.916,6.606,151.209,0,159.168,0V2.712c-6.057,0-8.734,4.814-9.791,7.683-.877,2.381-4.4,10.15-12.94,10.15S124.374,12.776,123.5,10.4ZM90.974,17.833c6.815,0,9.709-6.419,10.434-8.386C102.454,6.606,105.747,0,113.705,0V2.712c-6.056,0-8.734,4.814-9.791,7.683-.877,2.381-4.4,10.15-12.94,10.15ZM77.985,10.4c-1.057-2.869-3.734-7.683-9.791-7.683V0c7.959,0,11.251,6.606,12.3,9.447.725,1.967,3.619,8.386,10.434,8.386v2.712C82.387,20.545,78.862,12.776,77.985,10.4Zm-45.462,0c-1.057-2.869-3.734-7.683-9.791-7.683V0c7.959,0,11.251,6.606,12.3,9.447.725,1.967,3.619,8.386,10.433,8.386S55.171,11.414,55.9,9.447C56.942,6.606,60.235,0,68.194,0V2.712c-6.057,0-8.734,4.814-9.791,7.683-.877,2.381-4.4,10.15-12.94,10.15S33.4,12.776,32.522,10.4ZM0,17.833c6.815,0,9.709-6.419,10.433-8.386C11.48,6.606,14.773,0,22.731,0V2.712C16.675,2.712,14,7.526,12.94,10.4c-.877,2.381-4.4,10.15-12.94,10.15Z" transform="translate(277.349 303.011)" fill="#0033bf"/>
      <path id="Union_664" data-name="Union 664" d="M259.933,10.4c-1.057-2.869-3.735-7.683-9.791-7.683V0c7.959,0,11.251,6.606,12.3,9.447.725,1.967,3.619,8.386,10.434,8.386v2.712C264.335,20.545,260.81,12.776,259.933,10.4ZM227.41,17.833c6.815,0,9.709-6.419,10.434-8.386C238.89,6.606,242.183,0,250.142,0V2.712c-6.057,0-8.734,4.814-9.791,7.683-.877,2.381-4.4,10.15-12.94,10.15ZM214.421,10.4c-1.057-2.869-3.735-7.683-9.791-7.683V0c7.959,0,11.251,6.606,12.3,9.447.725,1.967,3.619,8.386,10.434,8.386v2.712C218.823,20.545,215.3,12.776,214.421,10.4Zm-45.462,0c-1.057-2.869-3.735-7.683-9.791-7.683V0c7.959,0,11.252,6.606,12.3,9.447.725,1.967,3.619,8.386,10.434,8.386s9.709-6.419,10.434-8.386C193.379,6.606,196.671,0,204.63,0V2.712c-6.057,0-8.734,4.814-9.791,7.683-.877,2.381-4.4,10.15-12.94,10.15S169.836,12.776,168.959,10.4Zm-45.462,0c-1.057-2.869-3.735-7.683-9.791-7.683V0c7.959,0,11.252,6.606,12.3,9.447.725,1.967,3.619,8.386,10.434,8.386s9.709-6.419,10.433-8.386C147.916,6.606,151.209,0,159.168,0V2.712c-6.057,0-8.734,4.814-9.791,7.683-.877,2.381-4.4,10.15-12.94,10.15S124.374,12.776,123.5,10.4ZM90.974,17.833c6.815,0,9.709-6.419,10.434-8.386C102.454,6.606,105.747,0,113.705,0V2.712c-6.056,0-8.734,4.814-9.791,7.683-.877,2.381-4.4,10.15-12.94,10.15ZM77.985,10.4c-1.057-2.869-3.734-7.683-9.791-7.683V0c7.959,0,11.251,6.606,12.3,9.447.725,1.967,3.619,8.386,10.434,8.386v2.712C82.387,20.545,78.862,12.776,77.985,10.4Zm-45.462,0c-1.057-2.869-3.734-7.683-9.791-7.683V0c7.959,0,11.251,6.606,12.3,9.447.725,1.967,3.619,8.386,10.433,8.386S55.171,11.414,55.9,9.447C56.942,6.606,60.235,0,68.194,0V2.712c-6.057,0-8.734,4.814-9.791,7.683-.877,2.381-4.4,10.15-12.94,10.15S33.4,12.776,32.522,10.4ZM0,17.833c6.815,0,9.709-6.419,10.433-8.386C11.48,6.606,14.773,0,22.731,0V2.712C16.675,2.712,14,7.526,12.94,10.4c-.877,2.381-4.4,10.15-12.94,10.15Z" transform="translate(277.349 50.502)" fill="#0033bf"/>
      <path id="Union_665" data-name="Union 665" d="M259.933,10.4c-1.057-2.869-3.735-7.683-9.791-7.683V0c7.959,0,11.251,6.606,12.3,9.447.725,1.967,3.619,8.386,10.434,8.386v2.712C264.335,20.545,260.81,12.776,259.933,10.4ZM227.41,17.833c6.815,0,9.709-6.419,10.434-8.386C238.89,6.606,242.183,0,250.142,0V2.712c-6.057,0-8.734,4.814-9.791,7.683-.877,2.381-4.4,10.15-12.94,10.15ZM214.421,10.4c-1.057-2.869-3.735-7.683-9.791-7.683V0c7.959,0,11.251,6.606,12.3,9.447.725,1.967,3.619,8.386,10.434,8.386v2.712C218.823,20.545,215.3,12.776,214.421,10.4Zm-45.462,0c-1.057-2.869-3.735-7.683-9.791-7.683V0c7.959,0,11.252,6.606,12.3,9.447.725,1.967,3.619,8.386,10.434,8.386s9.709-6.419,10.434-8.386C193.379,6.606,196.671,0,204.63,0V2.712c-6.057,0-8.734,4.814-9.791,7.683-.877,2.381-4.4,10.15-12.94,10.15S169.836,12.776,168.959,10.4Zm-45.462,0c-1.057-2.869-3.735-7.683-9.791-7.683V0c7.959,0,11.252,6.606,12.3,9.447.725,1.967,3.619,8.386,10.434,8.386s9.709-6.419,10.433-8.386C147.916,6.606,151.209,0,159.168,0V2.712c-6.057,0-8.734,4.814-9.791,7.683-.877,2.381-4.4,10.15-12.94,10.15S124.374,12.776,123.5,10.4ZM90.974,17.833c6.815,0,9.709-6.419,10.434-8.386C102.454,6.606,105.747,0,113.705,0V2.712c-6.056,0-8.734,4.814-9.791,7.683-.877,2.381-4.4,10.15-12.94,10.15ZM77.985,10.4c-1.057-2.869-3.734-7.683-9.791-7.683V0c7.959,0,11.251,6.606,12.3,9.447.725,1.967,3.619,8.386,10.434,8.386v2.712C82.387,20.545,78.862,12.776,77.985,10.4Zm-45.462,0c-1.057-2.869-3.734-7.683-9.791-7.683V0c7.959,0,11.251,6.606,12.3,9.447.725,1.967,3.619,8.386,10.433,8.386S55.171,11.414,55.9,9.447C56.942,6.606,60.235,0,68.194,0V2.712c-6.057,0-8.734,4.814-9.791,7.683-.877,2.381-4.4,10.15-12.94,10.15S33.4,12.776,32.522,10.4ZM0,17.833c6.815,0,9.709-6.419,10.433-8.386C11.48,6.606,14.773,0,22.731,0V2.712C16.675,2.712,14,7.526,12.94,10.4c-.877,2.381-4.4,10.15-12.94,10.15Z" transform="translate(277.349 252.509)" fill="#0033bf"/>
      <path id="Union_666" data-name="Union 666" d="M259.933,10.4c-1.057-2.869-3.735-7.683-9.791-7.683V0c7.959,0,11.251,6.606,12.3,9.447.725,1.967,3.619,8.386,10.434,8.386v2.712C264.335,20.545,260.81,12.776,259.933,10.4ZM227.41,17.833c6.815,0,9.709-6.419,10.434-8.386C238.89,6.606,242.183,0,250.142,0V2.712c-6.057,0-8.734,4.814-9.791,7.683-.877,2.381-4.4,10.15-12.94,10.15ZM214.421,10.4c-1.057-2.869-3.735-7.683-9.791-7.683V0c7.959,0,11.251,6.606,12.3,9.447.725,1.967,3.619,8.386,10.434,8.386v2.712C218.823,20.545,215.3,12.776,214.421,10.4Zm-45.462,0c-1.057-2.869-3.735-7.683-9.791-7.683V0c7.959,0,11.252,6.606,12.3,9.447.725,1.967,3.619,8.386,10.434,8.386s9.709-6.419,10.434-8.386C193.379,6.606,196.671,0,204.63,0V2.712c-6.057,0-8.734,4.814-9.791,7.683-.877,2.381-4.4,10.15-12.94,10.15S169.836,12.776,168.959,10.4Zm-45.462,0c-1.057-2.869-3.735-7.683-9.791-7.683V0c7.959,0,11.252,6.606,12.3,9.447.725,1.967,3.619,8.386,10.434,8.386s9.709-6.419,10.433-8.386C147.916,6.606,151.209,0,159.168,0V2.712c-6.057,0-8.734,4.814-9.791,7.683-.877,2.381-4.4,10.15-12.94,10.15S124.374,12.776,123.5,10.4ZM90.974,17.833c6.815,0,9.709-6.419,10.434-8.386C102.454,6.606,105.747,0,113.705,0V2.712c-6.056,0-8.734,4.814-9.791,7.683-.877,2.381-4.4,10.15-12.94,10.15ZM77.985,10.4c-1.057-2.869-3.734-7.683-9.791-7.683V0c7.959,0,11.251,6.606,12.3,9.447.725,1.967,3.619,8.386,10.434,8.386v2.712C82.387,20.545,78.862,12.776,77.985,10.4Zm-45.462,0c-1.057-2.869-3.734-7.683-9.791-7.683V0c7.959,0,11.251,6.606,12.3,9.447.725,1.967,3.619,8.386,10.433,8.386S55.171,11.414,55.9,9.447C56.942,6.606,60.235,0,68.194,0V2.712c-6.057,0-8.734,4.814-9.791,7.683-.877,2.381-4.4,10.15-12.94,10.15S33.4,12.776,32.522,10.4ZM0,17.833c6.815,0,9.709-6.419,10.433-8.386C11.48,6.606,14.773,0,22.731,0V2.712C16.675,2.712,14,7.526,12.94,10.4c-.877,2.381-4.4,10.15-12.94,10.15Z" transform="translate(277.349 151.505)" fill="#0033bf"/>
      <path id="Union_667" data-name="Union 667" d="M259.933,10.4c-1.057-2.869-3.735-7.683-9.791-7.683V0c7.959,0,11.251,6.606,12.3,9.447.725,1.967,3.619,8.386,10.434,8.386v2.712C264.335,20.545,260.81,12.776,259.933,10.4ZM227.41,17.833c6.815,0,9.709-6.419,10.434-8.386C238.89,6.606,242.183,0,250.142,0V2.712c-6.057,0-8.734,4.814-9.791,7.683-.877,2.381-4.4,10.15-12.94,10.15ZM214.421,10.4c-1.057-2.869-3.735-7.683-9.791-7.683V0c7.959,0,11.251,6.606,12.3,9.447.725,1.967,3.619,8.386,10.434,8.386v2.712C218.823,20.545,215.3,12.776,214.421,10.4Zm-45.462,0c-1.057-2.869-3.735-7.683-9.791-7.683V0c7.959,0,11.252,6.606,12.3,9.447.725,1.967,3.619,8.386,10.434,8.386s9.709-6.419,10.434-8.386C193.379,6.606,196.671,0,204.63,0V2.712c-6.057,0-8.734,4.814-9.791,7.683-.877,2.381-4.4,10.15-12.94,10.15S169.836,12.776,168.959,10.4Zm-45.462,0c-1.057-2.869-3.735-7.683-9.791-7.683V0c7.959,0,11.252,6.606,12.3,9.447.725,1.967,3.619,8.386,10.434,8.386s9.709-6.419,10.433-8.386C147.916,6.606,151.209,0,159.168,0V2.712c-6.057,0-8.734,4.814-9.791,7.683-.877,2.381-4.4,10.15-12.94,10.15S124.374,12.776,123.5,10.4ZM90.974,17.833c6.815,0,9.709-6.419,10.434-8.386C102.454,6.606,105.747,0,113.705,0V2.712c-6.056,0-8.734,4.814-9.791,7.683-.877,2.381-4.4,10.15-12.94,10.15ZM77.985,10.4c-1.057-2.869-3.734-7.683-9.791-7.683V0c7.959,0,11.251,6.606,12.3,9.447.725,1.967,3.619,8.386,10.434,8.386v2.712C82.387,20.545,78.862,12.776,77.985,10.4Zm-45.462,0c-1.057-2.869-3.734-7.683-9.791-7.683V0c7.959,0,11.251,6.606,12.3,9.447.725,1.967,3.619,8.386,10.433,8.386S55.171,11.414,55.9,9.447C56.942,6.606,60.235,0,68.194,0V2.712c-6.057,0-8.734,4.814-9.791,7.683-.877,2.381-4.4,10.15-12.94,10.15S33.4,12.776,32.522,10.4ZM0,17.833c6.815,0,9.709-6.419,10.433-8.386C11.48,6.606,14.773,0,22.731,0V2.712C16.675,2.712,14,7.526,12.94,10.4c-.877,2.381-4.4,10.15-12.94,10.15Z" transform="translate(277.349 353.512)" fill="#0033bf"/>
      <path id="Union_668" data-name="Union 668" d="M259.933,10.4c-1.057-2.869-3.735-7.683-9.791-7.683V0c7.959,0,11.251,6.606,12.3,9.447.725,1.967,3.619,8.386,10.434,8.386v2.712C264.335,20.545,260.81,12.776,259.933,10.4ZM227.41,17.833c6.815,0,9.709-6.419,10.434-8.386C238.89,6.606,242.183,0,250.142,0V2.712c-6.057,0-8.734,4.814-9.791,7.683-.877,2.381-4.4,10.15-12.94,10.15ZM214.421,10.4c-1.057-2.869-3.735-7.683-9.791-7.683V0c7.959,0,11.251,6.606,12.3,9.447.725,1.967,3.619,8.386,10.434,8.386v2.712C218.823,20.545,215.3,12.776,214.421,10.4Zm-45.462,0c-1.057-2.869-3.735-7.683-9.791-7.683V0c7.959,0,11.252,6.606,12.3,9.447.725,1.967,3.619,8.386,10.434,8.386s9.709-6.419,10.434-8.386C193.379,6.606,196.671,0,204.63,0V2.712c-6.057,0-8.734,4.814-9.791,7.683-.877,2.381-4.4,10.15-12.94,10.15S169.836,12.776,168.959,10.4Zm-45.462,0c-1.057-2.869-3.735-7.683-9.791-7.683V0c7.959,0,11.252,6.606,12.3,9.447.725,1.967,3.619,8.386,10.434,8.386s9.709-6.419,10.433-8.386C147.916,6.606,151.209,0,159.168,0V2.712c-6.057,0-8.734,4.814-9.791,7.683-.877,2.381-4.4,10.15-12.94,10.15S124.374,12.776,123.5,10.4ZM90.974,17.833c6.815,0,9.709-6.419,10.434-8.386C102.454,6.606,105.747,0,113.705,0V2.712c-6.056,0-8.734,4.814-9.791,7.683-.877,2.381-4.4,10.15-12.94,10.15ZM77.985,10.4c-1.057-2.869-3.734-7.683-9.791-7.683V0c7.959,0,11.251,6.606,12.3,9.447.725,1.967,3.619,8.386,10.434,8.386v2.712C82.387,20.545,78.862,12.776,77.985,10.4Zm-45.462,0c-1.057-2.869-3.734-7.683-9.791-7.683V0c7.959,0,11.251,6.606,12.3,9.447.725,1.967,3.619,8.386,10.433,8.386S55.171,11.414,55.9,9.447C56.942,6.606,60.235,0,68.194,0V2.712c-6.057,0-8.734,4.814-9.791,7.683-.877,2.381-4.4,10.15-12.94,10.15S33.4,12.776,32.522,10.4ZM0,17.833c6.815,0,9.709-6.419,10.433-8.386C11.48,6.606,14.773,0,22.731,0V2.712C16.675,2.712,14,7.526,12.94,10.4c-.877,2.381-4.4,10.15-12.94,10.15Z" transform="translate(272.873 25.251)" fill="#0033bf"/>
      <path id="Union_669" data-name="Union 669" d="M259.933,10.4c-1.057-2.869-3.735-7.683-9.791-7.683V0c7.959,0,11.251,6.606,12.3,9.447.725,1.967,3.619,8.386,10.434,8.386v2.712C264.335,20.545,260.81,12.776,259.933,10.4ZM227.41,17.833c6.815,0,9.709-6.419,10.434-8.386C238.89,6.606,242.183,0,250.142,0V2.712c-6.057,0-8.734,4.814-9.791,7.683-.877,2.381-4.4,10.15-12.94,10.15ZM214.421,10.4c-1.057-2.869-3.735-7.683-9.791-7.683V0c7.959,0,11.251,6.606,12.3,9.447.725,1.967,3.619,8.386,10.434,8.386v2.712C218.823,20.545,215.3,12.776,214.421,10.4Zm-45.462,0c-1.057-2.869-3.735-7.683-9.791-7.683V0c7.959,0,11.252,6.606,12.3,9.447.725,1.967,3.619,8.386,10.434,8.386s9.709-6.419,10.434-8.386C193.379,6.606,196.671,0,204.63,0V2.712c-6.057,0-8.734,4.814-9.791,7.683-.877,2.381-4.4,10.15-12.94,10.15S169.836,12.776,168.959,10.4Zm-45.462,0c-1.057-2.869-3.735-7.683-9.791-7.683V0c7.959,0,11.252,6.606,12.3,9.447.725,1.967,3.619,8.386,10.434,8.386s9.709-6.419,10.433-8.386C147.916,6.606,151.209,0,159.168,0V2.712c-6.057,0-8.734,4.814-9.791,7.683-.877,2.381-4.4,10.15-12.94,10.15S124.374,12.776,123.5,10.4ZM90.974,17.833c6.815,0,9.709-6.419,10.434-8.386C102.454,6.606,105.747,0,113.705,0V2.712c-6.056,0-8.734,4.814-9.791,7.683-.877,2.381-4.4,10.15-12.94,10.15ZM77.985,10.4c-1.057-2.869-3.734-7.683-9.791-7.683V0c7.959,0,11.251,6.606,12.3,9.447.725,1.967,3.619,8.386,10.434,8.386v2.712C82.387,20.545,78.862,12.776,77.985,10.4Zm-45.462,0c-1.057-2.869-3.734-7.683-9.791-7.683V0c7.959,0,11.251,6.606,12.3,9.447.725,1.967,3.619,8.386,10.433,8.386S55.171,11.414,55.9,9.447C56.942,6.606,60.235,0,68.194,0V2.712c-6.057,0-8.734,4.814-9.791,7.683-.877,2.381-4.4,10.15-12.94,10.15S33.4,12.776,32.522,10.4ZM0,17.833c6.815,0,9.709-6.419,10.433-8.386C11.48,6.606,14.773,0,22.731,0V2.712C16.675,2.712,14,7.526,12.94,10.4c-.877,2.381-4.4,10.15-12.94,10.15Z" transform="translate(272.873 227.258)" fill="#0033bf"/>
      <path id="Union_670" data-name="Union 670" d="M259.933,10.4c-1.057-2.869-3.735-7.683-9.791-7.683V0c7.959,0,11.251,6.606,12.3,9.447.725,1.967,3.619,8.386,10.434,8.386v2.712C264.335,20.545,260.81,12.776,259.933,10.4ZM227.41,17.833c6.815,0,9.709-6.419,10.434-8.386C238.89,6.606,242.183,0,250.142,0V2.712c-6.057,0-8.734,4.814-9.791,7.683-.877,2.381-4.4,10.15-12.94,10.15ZM214.421,10.4c-1.057-2.869-3.735-7.683-9.791-7.683V0c7.959,0,11.251,6.606,12.3,9.447.725,1.967,3.619,8.386,10.434,8.386v2.712C218.823,20.545,215.3,12.776,214.421,10.4Zm-45.462,0c-1.057-2.869-3.735-7.683-9.791-7.683V0c7.959,0,11.252,6.606,12.3,9.447.725,1.967,3.619,8.386,10.434,8.386s9.709-6.419,10.434-8.386C193.379,6.606,196.671,0,204.63,0V2.712c-6.057,0-8.734,4.814-9.791,7.683-.877,2.381-4.4,10.15-12.94,10.15S169.836,12.776,168.959,10.4Zm-45.462,0c-1.057-2.869-3.735-7.683-9.791-7.683V0c7.959,0,11.252,6.606,12.3,9.447.725,1.967,3.619,8.386,10.434,8.386s9.709-6.419,10.433-8.386C147.916,6.606,151.209,0,159.168,0V2.712c-6.057,0-8.734,4.814-9.791,7.683-.877,2.381-4.4,10.15-12.94,10.15S124.374,12.776,123.5,10.4ZM90.974,17.833c6.815,0,9.709-6.419,10.434-8.386C102.454,6.606,105.747,0,113.705,0V2.712c-6.056,0-8.734,4.814-9.791,7.683-.877,2.381-4.4,10.15-12.94,10.15ZM77.985,10.4c-1.057-2.869-3.734-7.683-9.791-7.683V0c7.959,0,11.251,6.606,12.3,9.447.725,1.967,3.619,8.386,10.434,8.386v2.712C82.387,20.545,78.862,12.776,77.985,10.4Zm-45.462,0c-1.057-2.869-3.734-7.683-9.791-7.683V0c7.959,0,11.251,6.606,12.3,9.447.725,1.967,3.619,8.386,10.433,8.386S55.171,11.414,55.9,9.447C56.942,6.606,60.235,0,68.194,0V2.712c-6.057,0-8.734,4.814-9.791,7.683-.877,2.381-4.4,10.15-12.94,10.15S33.4,12.776,32.522,10.4ZM0,17.833c6.815,0,9.709-6.419,10.433-8.386C11.48,6.606,14.773,0,22.731,0V2.712C16.675,2.712,14,7.526,12.94,10.4c-.877,2.381-4.4,10.15-12.94,10.15Z" transform="translate(272.873 126.255)" fill="#0033bf"/>
      <path id="Union_671" data-name="Union 671" d="M259.933,10.4c-1.057-2.869-3.735-7.683-9.791-7.683V0c7.959,0,11.251,6.606,12.3,9.447.725,1.967,3.619,8.386,10.434,8.386v2.712C264.335,20.545,260.81,12.776,259.933,10.4ZM227.41,17.833c6.815,0,9.709-6.419,10.434-8.386C238.89,6.606,242.183,0,250.142,0V2.712c-6.057,0-8.734,4.814-9.791,7.683-.877,2.381-4.4,10.15-12.94,10.15ZM214.421,10.4c-1.057-2.869-3.735-7.683-9.791-7.683V0c7.959,0,11.251,6.606,12.3,9.447.725,1.967,3.619,8.386,10.434,8.386v2.712C218.823,20.545,215.3,12.776,214.421,10.4Zm-45.462,0c-1.057-2.869-3.735-7.683-9.791-7.683V0c7.959,0,11.252,6.606,12.3,9.447.725,1.967,3.619,8.386,10.434,8.386s9.709-6.419,10.434-8.386C193.379,6.606,196.671,0,204.63,0V2.712c-6.057,0-8.734,4.814-9.791,7.683-.877,2.381-4.4,10.15-12.94,10.15S169.836,12.776,168.959,10.4Zm-45.462,0c-1.057-2.869-3.735-7.683-9.791-7.683V0c7.959,0,11.252,6.606,12.3,9.447.725,1.967,3.619,8.386,10.434,8.386s9.709-6.419,10.433-8.386C147.916,6.606,151.209,0,159.168,0V2.712c-6.057,0-8.734,4.814-9.791,7.683-.877,2.381-4.4,10.15-12.94,10.15S124.374,12.776,123.5,10.4ZM90.974,17.833c6.815,0,9.709-6.419,10.434-8.386C102.454,6.606,105.747,0,113.705,0V2.712c-6.056,0-8.734,4.814-9.791,7.683-.877,2.381-4.4,10.15-12.94,10.15ZM77.985,10.4c-1.057-2.869-3.734-7.683-9.791-7.683V0c7.959,0,11.251,6.606,12.3,9.447.725,1.967,3.619,8.386,10.434,8.386v2.712C82.387,20.545,78.862,12.776,77.985,10.4Zm-45.462,0c-1.057-2.869-3.734-7.683-9.791-7.683V0c7.959,0,11.251,6.606,12.3,9.447.725,1.967,3.619,8.386,10.433,8.386S55.171,11.414,55.9,9.447C56.942,6.606,60.235,0,68.194,0V2.712c-6.057,0-8.734,4.814-9.791,7.683-.877,2.381-4.4,10.15-12.94,10.15S33.4,12.776,32.522,10.4ZM0,17.833c6.815,0,9.709-6.419,10.433-8.386C11.48,6.606,14.773,0,22.731,0V2.712C16.675,2.712,14,7.526,12.94,10.4c-.877,2.381-4.4,10.15-12.94,10.15Z" transform="translate(272.873 328.262)" fill="#0033bf"/>
      <path id="Union_672" data-name="Union 672" d="M259.933,10.4c-1.057-2.869-3.735-7.683-9.791-7.683V0c7.959,0,11.251,6.606,12.3,9.447.725,1.967,3.619,8.386,10.434,8.386v2.712C264.335,20.545,260.81,12.776,259.933,10.4ZM227.41,17.833c6.815,0,9.709-6.419,10.434-8.386C238.89,6.606,242.183,0,250.142,0V2.712c-6.057,0-8.734,4.814-9.791,7.683-.877,2.381-4.4,10.15-12.94,10.15ZM214.421,10.4c-1.057-2.869-3.735-7.683-9.791-7.683V0c7.959,0,11.251,6.606,12.3,9.447.725,1.967,3.619,8.386,10.434,8.386v2.712C218.823,20.545,215.3,12.776,214.421,10.4Zm-45.462,0c-1.057-2.869-3.735-7.683-9.791-7.683V0c7.959,0,11.252,6.606,12.3,9.447.725,1.967,3.619,8.386,10.434,8.386s9.709-6.419,10.434-8.386C193.379,6.606,196.671,0,204.63,0V2.712c-6.057,0-8.734,4.814-9.791,7.683-.877,2.381-4.4,10.15-12.94,10.15S169.836,12.776,168.959,10.4Zm-45.462,0c-1.057-2.869-3.735-7.683-9.791-7.683V0c7.959,0,11.252,6.606,12.3,9.447.725,1.967,3.619,8.386,10.434,8.386s9.709-6.419,10.433-8.386C147.916,6.606,151.209,0,159.168,0V2.712c-6.057,0-8.734,4.814-9.791,7.683-.877,2.381-4.4,10.15-12.94,10.15S124.374,12.776,123.5,10.4ZM90.974,17.833c6.815,0,9.709-6.419,10.434-8.386C102.454,6.606,105.747,0,113.705,0V2.712c-6.056,0-8.734,4.814-9.791,7.683-.877,2.381-4.4,10.15-12.94,10.15ZM77.985,10.4c-1.057-2.869-3.734-7.683-9.791-7.683V0c7.959,0,11.251,6.606,12.3,9.447.725,1.967,3.619,8.386,10.434,8.386v2.712C82.387,20.545,78.862,12.776,77.985,10.4Zm-45.462,0c-1.057-2.869-3.734-7.683-9.791-7.683V0c7.959,0,11.251,6.606,12.3,9.447.725,1.967,3.619,8.386,10.433,8.386S55.171,11.414,55.9,9.447C56.942,6.606,60.235,0,68.194,0V2.712c-6.057,0-8.734,4.814-9.791,7.683-.877,2.381-4.4,10.15-12.94,10.15S33.4,12.776,32.522,10.4ZM0,17.833c6.815,0,9.709-6.419,10.433-8.386C11.48,6.606,14.773,0,22.731,0V2.712C16.675,2.712,14,7.526,12.94,10.4c-.877,2.381-4.4,10.15-12.94,10.15Z" transform="translate(272.873 75.753)" fill="#0033bf"/>
      <path id="Union_673" data-name="Union 673" d="M259.933,10.4c-1.057-2.869-3.735-7.683-9.791-7.683V0c7.959,0,11.251,6.606,12.3,9.447.725,1.967,3.619,8.386,10.434,8.386v2.712C264.335,20.545,260.81,12.776,259.933,10.4ZM227.41,17.833c6.815,0,9.709-6.419,10.434-8.386C238.89,6.606,242.183,0,250.142,0V2.712c-6.057,0-8.734,4.814-9.791,7.683-.877,2.381-4.4,10.15-12.94,10.15ZM214.421,10.4c-1.057-2.869-3.735-7.683-9.791-7.683V0c7.959,0,11.251,6.606,12.3,9.447.725,1.967,3.619,8.386,10.434,8.386v2.712C218.823,20.545,215.3,12.776,214.421,10.4Zm-45.462,0c-1.057-2.869-3.735-7.683-9.791-7.683V0c7.959,0,11.252,6.606,12.3,9.447.725,1.967,3.619,8.386,10.434,8.386s9.709-6.419,10.434-8.386C193.379,6.606,196.671,0,204.63,0V2.712c-6.057,0-8.734,4.814-9.791,7.683-.877,2.381-4.4,10.15-12.94,10.15S169.836,12.776,168.959,10.4Zm-45.462,0c-1.057-2.869-3.735-7.683-9.791-7.683V0c7.959,0,11.252,6.606,12.3,9.447.725,1.967,3.619,8.386,10.434,8.386s9.709-6.419,10.433-8.386C147.916,6.606,151.209,0,159.168,0V2.712c-6.057,0-8.734,4.814-9.791,7.683-.877,2.381-4.4,10.15-12.94,10.15S124.374,12.776,123.5,10.4ZM90.974,17.833c6.815,0,9.709-6.419,10.434-8.386C102.454,6.606,105.747,0,113.705,0V2.712c-6.056,0-8.734,4.814-9.791,7.683-.877,2.381-4.4,10.15-12.94,10.15ZM77.985,10.4c-1.057-2.869-3.734-7.683-9.791-7.683V0c7.959,0,11.251,6.606,12.3,9.447.725,1.967,3.619,8.386,10.434,8.386v2.712C82.387,20.545,78.862,12.776,77.985,10.4Zm-45.462,0c-1.057-2.869-3.734-7.683-9.791-7.683V0c7.959,0,11.251,6.606,12.3,9.447.725,1.967,3.619,8.386,10.433,8.386S55.171,11.414,55.9,9.447C56.942,6.606,60.235,0,68.194,0V2.712c-6.057,0-8.734,4.814-9.791,7.683-.877,2.381-4.4,10.15-12.94,10.15S33.4,12.776,32.522,10.4ZM0,17.833c6.815,0,9.709-6.419,10.433-8.386C11.48,6.606,14.773,0,22.731,0V2.712C16.675,2.712,14,7.526,12.94,10.4c-.877,2.381-4.4,10.15-12.94,10.15Z" transform="translate(272.873 277.76)" fill="#0033bf"/>
      <path id="Union_674" data-name="Union 674" d="M259.933,10.4c-1.057-2.869-3.735-7.683-9.791-7.683V0c7.959,0,11.251,6.606,12.3,9.447.725,1.967,3.619,8.386,10.434,8.386v2.712C264.335,20.545,260.81,12.776,259.933,10.4ZM227.41,17.833c6.815,0,9.709-6.419,10.434-8.386C238.89,6.606,242.183,0,250.142,0V2.712c-6.057,0-8.734,4.814-9.791,7.683-.877,2.381-4.4,10.15-12.94,10.15ZM214.421,10.4c-1.057-2.869-3.735-7.683-9.791-7.683V0c7.959,0,11.251,6.606,12.3,9.447.725,1.967,3.619,8.386,10.434,8.386v2.712C218.823,20.545,215.3,12.776,214.421,10.4Zm-45.462,0c-1.057-2.869-3.735-7.683-9.791-7.683V0c7.959,0,11.252,6.606,12.3,9.447.725,1.967,3.619,8.386,10.434,8.386s9.709-6.419,10.434-8.386C193.379,6.606,196.671,0,204.63,0V2.712c-6.057,0-8.734,4.814-9.791,7.683-.877,2.381-4.4,10.15-12.94,10.15S169.836,12.776,168.959,10.4Zm-45.462,0c-1.057-2.869-3.735-7.683-9.791-7.683V0c7.959,0,11.252,6.606,12.3,9.447.725,1.967,3.619,8.386,10.434,8.386s9.709-6.419,10.433-8.386C147.916,6.606,151.209,0,159.168,0V2.712c-6.057,0-8.734,4.814-9.791,7.683-.877,2.381-4.4,10.15-12.94,10.15S124.374,12.776,123.5,10.4ZM90.974,17.833c6.815,0,9.709-6.419,10.434-8.386C102.454,6.606,105.747,0,113.705,0V2.712c-6.056,0-8.734,4.814-9.791,7.683-.877,2.381-4.4,10.15-12.94,10.15ZM77.985,10.4c-1.057-2.869-3.734-7.683-9.791-7.683V0c7.959,0,11.251,6.606,12.3,9.447.725,1.967,3.619,8.386,10.434,8.386v2.712C82.387,20.545,78.862,12.776,77.985,10.4Zm-45.462,0c-1.057-2.869-3.734-7.683-9.791-7.683V0c7.959,0,11.251,6.606,12.3,9.447.725,1.967,3.619,8.386,10.433,8.386S55.171,11.414,55.9,9.447C56.942,6.606,60.235,0,68.194,0V2.712c-6.057,0-8.734,4.814-9.791,7.683-.877,2.381-4.4,10.15-12.94,10.15S33.4,12.776,32.522,10.4ZM0,17.833c6.815,0,9.709-6.419,10.433-8.386C11.48,6.606,14.773,0,22.731,0V2.712C16.675,2.712,14,7.526,12.94,10.4c-.877,2.381-4.4,10.15-12.94,10.15Z" transform="translate(272.873 176.756)" fill="#0033bf"/>
      <path id="Union_675" data-name="Union 675" d="M259.933,10.4c-1.057-2.869-3.735-7.683-9.791-7.683V0c7.959,0,11.251,6.606,12.3,9.447.725,1.967,3.619,8.386,10.434,8.386v2.712C264.335,20.545,260.81,12.776,259.933,10.4ZM227.41,17.833c6.815,0,9.709-6.419,10.434-8.386C238.89,6.606,242.183,0,250.142,0V2.712c-6.057,0-8.734,4.814-9.791,7.683-.877,2.381-4.4,10.15-12.94,10.15ZM214.421,10.4c-1.057-2.869-3.735-7.683-9.791-7.683V0c7.959,0,11.251,6.606,12.3,9.447.725,1.967,3.619,8.386,10.434,8.386v2.712C218.823,20.545,215.3,12.776,214.421,10.4Zm-45.462,0c-1.057-2.869-3.735-7.683-9.791-7.683V0c7.959,0,11.252,6.606,12.3,9.447.725,1.967,3.619,8.386,10.434,8.386s9.709-6.419,10.434-8.386C193.379,6.606,196.671,0,204.63,0V2.712c-6.057,0-8.734,4.814-9.791,7.683-.877,2.381-4.4,10.15-12.94,10.15S169.836,12.776,168.959,10.4Zm-45.462,0c-1.057-2.869-3.735-7.683-9.791-7.683V0c7.959,0,11.252,6.606,12.3,9.447.725,1.967,3.619,8.386,10.434,8.386s9.709-6.419,10.433-8.386C147.916,6.606,151.209,0,159.168,0V2.712c-6.057,0-8.734,4.814-9.791,7.683-.877,2.381-4.4,10.15-12.94,10.15S124.374,12.776,123.5,10.4ZM90.974,17.833c6.815,0,9.709-6.419,10.434-8.386C102.454,6.606,105.747,0,113.705,0V2.712c-6.056,0-8.734,4.814-9.791,7.683-.877,2.381-4.4,10.15-12.94,10.15ZM77.985,10.4c-1.057-2.869-3.734-7.683-9.791-7.683V0c7.959,0,11.251,6.606,12.3,9.447.725,1.967,3.619,8.386,10.434,8.386v2.712C82.387,20.545,78.862,12.776,77.985,10.4Zm-45.462,0c-1.057-2.869-3.734-7.683-9.791-7.683V0c7.959,0,11.251,6.606,12.3,9.447.725,1.967,3.619,8.386,10.433,8.386S55.171,11.414,55.9,9.447C56.942,6.606,60.235,0,68.194,0V2.712c-6.057,0-8.734,4.814-9.791,7.683-.877,2.381-4.4,10.15-12.94,10.15S33.4,12.776,32.522,10.4ZM0,17.833c6.815,0,9.709-6.419,10.433-8.386C11.48,6.606,14.773,0,22.731,0V2.712C16.675,2.712,14,7.526,12.94,10.4c-.877,2.381-4.4,10.15-12.94,10.15Z" transform="translate(272.873 378.763)" fill="#0033bf"/>
    </g>
  </g>
</svg>
