<svg xmlns="http://www.w3.org/2000/svg" width="53.002" height="8.831" viewBox="0 0 53.002 8.831">
  <path id="Union_499" data-name="Union 499" d="M52.5,8.831a5.16,5.16,0,0,1-3.93-1.755A7.505,7.505,0,0,1,47.1,4.635c-.8-2.151-2.215-2.6-3.265-2.6a3.04,3.04,0,0,0-2.227.909,4.808,4.808,0,0,0-1.036,1.7c-.363.985-1.828,4.195-5.405,4.195s-5.039-3.21-5.4-4.194A3.533,3.533,0,0,0,26.5,2.031a3.031,3.031,0,0,0-2.225.909,4.792,4.792,0,0,0-1.039,1.7c-.363.984-1.828,4.194-5.4,4.194S12.8,5.621,12.432,4.637A3.533,3.533,0,0,0,9.17,2.031a3.037,3.037,0,0,0-2.228.909A4.779,4.779,0,0,0,5.9,4.637,7.5,7.5,0,0,1,4.432,7.076,5.166,5.166,0,0,1,.5,8.831H0V6.8H.5c2.273,0,3.26-2.2,3.509-2.873A5.626,5.626,0,0,1,8.67.021V0h1V.022a5.624,5.624,0,0,1,4.658,3.9c.247.677,1.223,2.874,3.51,2.874s3.26-2.2,3.51-2.873A5.623,5.623,0,0,1,26,.022V0h1V.022a5.624,5.624,0,0,1,4.658,3.9C31.909,4.6,32.885,6.8,35.168,6.8s3.263-2.2,3.511-2.872A5.543,5.543,0,0,1,43.834,0a4.971,4.971,0,0,1,3.694,1.547,6.82,6.82,0,0,1,1.465,2.381C49.243,4.6,50.231,6.8,52.5,6.8H53V8.831Z" fill="#0033bf"/>
</svg>
