<svg xmlns="http://www.w3.org/2000/svg" width="1966.324" height="19.74" viewBox="0 0 1966.324 19.74">
  <path id="Union_639" data-name="Union 639" d="M1962.484,19.738h0c-8.2,0-11.589-7.465-12.431-9.752-1.016-2.757-3.588-7.382-9.407-7.382s-8.392,4.625-9.407,7.382c-.842,2.288-4.228,9.752-12.433,9.752V17.133c6.549,0,9.328-6.168,10.024-8.058C1929.836,6.347,1933,0,1940.646,0s10.809,6.347,11.814,9.076c.7,1.89,3.476,8.058,10.025,8.058h0a9.228,9.228,0,0,0,3.839-.806v2.805a12.025,12.025,0,0,1-3.84.607Zm-480,0-.322-.005c-.119,0-.224,0-.322,0-8.2,0-11.59-7.464-12.433-9.752-.987-2.683-3.481-7.21-9.083-7.377-5.6.167-8.1,4.694-9.085,7.377-.842,2.288-4.231,9.752-12.432,9.752v-.016h-.023l-.023,0v.014c-.1,0-.2,0-.3,0s-.2,0-.3,0v-.014c-7.779-.354-11.023-7.543-11.832-9.738-1.015-2.757-3.588-7.382-9.407-7.382s-8.391,4.625-9.408,7.382c-.841,2.288-4.226,9.752-12.431,9.752s-11.59-7.464-12.433-9.752c-1.015-2.757-3.588-7.382-9.407-7.382s-8.393,4.625-9.408,7.382c-.842,2.288-4.226,9.752-12.431,9.752s-11.59-7.464-12.433-9.752c-1.016-2.757-3.588-7.382-9.407-7.382s-8.392,4.625-9.408,7.382c-.842,2.288-4.226,9.752-12.431,9.752V17.133c6.548,0,9.328-6.168,10.023-8.058,1.005-2.729,4.17-9.076,11.815-9.076s10.809,6.347,11.814,9.076c.7,1.89,3.476,8.058,10.025,8.058s9.327-6.168,10.022-8.058C1362.433,6.347,1365.6,0,1373.243,0s10.809,6.347,11.814,9.076c.7,1.89,3.478,8.058,10.025,8.058s9.327-6.168,10.022-8.058C1406.11,6.347,1409.275,0,1416.92,0s10.809,6.347,11.814,9.076c.679,1.842,3.389,7.869,9.724,8.053,6.337-.185,9.046-6.211,9.724-8.053C1449.189,6.347,1452.353,0,1460,0c.127,0,.227,0,.323,0s.2,0,.323,0c7.646,0,10.809,6.347,11.813,9.076.678,1.839,3.38,7.853,9.7,8.052,6.323-.2,9.024-6.214,9.7-8.052,1.006-2.729,4.17-9.076,11.816-9.076s10.809,6.347,11.815,9.076c.7,1.89,3.475,8.058,10.023,8.058v2.6c-8.2,0-11.59-7.464-12.433-9.751-1.015-2.757-3.586-7.382-9.406-7.382s-8.392,4.625-9.407,7.382c-.807,2.188-4.04,9.356-11.787,9.735v.016h0Zm-481,0c-8.2,0-11.589-7.465-12.432-9.752-1-2.717-3.529-7.288-9.229-7.381-5.7.093-8.229,4.664-9.23,7.381-.843,2.288-4.23,9.752-12.433,9.752h0v-.005c-.095,0-.222.005-.354.005V17.133c6.549,0,9.328-6.168,10.022-8.058C968.836,6.347,972,0,979.646,0H980c7.645,0,10.808,6.347,11.814,9.076.7,1.89,3.478,8.058,10.023,8.058s9.328-6.168,10.024-8.058C1012.868,6.347,1016.033,0,1023.676,0s10.81,6.347,11.816,9.076c.7,1.89,3.479,8.058,10.024,8.058v2.6c-8.2,0-11.59-7.464-12.433-9.751-1.014-2.757-3.586-7.382-9.407-7.382s-8.391,4.625-9.406,7.382c-.842,2.288-4.229,9.752-12.433,9.752-.115,0-.234,0-.354-.005v.005h0Zm-481,0c-8.2,0-11.589-7.465-12.431-9.752-1-2.717-3.53-7.288-9.229-7.381-5.7.093-8.23,4.664-9.23,7.381-.842,2.288-4.228,9.752-12.434,9.752h0v-.005c-.094,0-.222.005-.353.005V17.133c6.546,0,9.328-6.168,10.023-8.058C487.836,6.347,491,0,498.646,0H499c7.646,0,10.809,6.347,11.814,9.076.7,1.89,3.477,8.058,10.023,8.058s9.328-6.168,10.025-8.058C531.868,6.347,535.032,0,542.677,0s10.809,6.347,11.814,9.076c.7,1.89,3.477,8.058,10.023,8.058v2.6c-8.205,0-11.59-7.464-12.432-9.751-1.015-2.757-3.588-7.382-9.407-7.382s-8.392,4.625-9.408,7.382c-.842,2.288-4.227,9.752-12.433,9.752-.115,0-.235,0-.353-.005v.005h0Zm1398.275,0c-8.2,0-11.589-7.465-12.431-9.752-1.016-2.757-3.59-7.382-9.408-7.382s-8.391,4.625-9.408,7.382c-.842,2.288-4.226,9.752-12.431,9.752s-11.59-7.464-12.432-9.752c-1.016-2.757-3.59-7.382-9.408-7.382s-8.391,4.625-9.408,7.382c-.842,2.288-4.226,9.752-12.431,9.752s-11.59-7.464-12.432-9.752c-1.016-2.757-3.59-7.382-9.408-7.382s-8.391,4.625-9.408,7.382c-.841,2.288-4.226,9.752-12.431,9.752V17.133c6.546,0,9.328-6.168,10.024-8.058,1-2.729,4.166-9.076,11.814-9.076s10.81,6.347,11.814,9.076c.7,1.89,3.479,8.058,10.025,8.058s9.327-6.168,10.024-8.058C1842.433,6.347,1845.6,0,1853.242,0s10.809,6.347,11.814,9.076c.7,1.89,3.479,8.058,10.025,8.058s9.327-6.168,10.024-8.058c1-2.729,4.167-9.076,11.814-9.076s10.81,6.347,11.814,9.076c.7,1.89,3.479,8.058,10.025,8.058v2.6h0Zm-131.081,0c-8.2,0-11.589-7.465-12.431-9.752-1.015-2.757-3.588-7.382-9.408-7.382s-8.391,4.625-9.406,7.382c-.842,2.288-4.229,9.752-12.433,9.752s-11.59-7.464-12.432-9.752c-1.015-2.757-3.587-7.382-9.408-7.382s-8.391,4.625-9.406,7.382c-.842,2.288-4.229,9.752-12.432,9.752s-11.59-7.464-12.432-9.752c-1.016-2.757-3.59-7.382-9.408-7.382s-8.391,4.625-9.406,7.382c-.842,2.288-4.229,9.752-12.433,9.752V17.133c6.546,0,9.328-6.168,10.024-8.058C1667.674,6.347,1670.837,0,1678.483,0s10.81,6.347,11.816,9.076c.7,1.89,3.475,8.058,10.023,8.058s9.328-6.168,10.024-8.058C1711.352,6.347,1714.515,0,1722.161,0s10.81,6.347,11.816,9.076c.7,1.89,3.475,8.058,10.023,8.058s9.328-6.168,10.024-8.058C1755.03,6.347,1758.194,0,1765.839,0s10.81,6.347,11.816,9.076c.7,1.89,3.475,8.058,10.023,8.058v2.6h0Zm-131.081,0c-8.2,0-11.589-7.465-12.432-9.752-1.014-2.757-3.587-7.382-9.407-7.382s-8.39,4.625-9.406,7.382c-.842,2.288-4.229,9.752-12.432,9.752s-11.59-7.464-12.433-9.752c-1.015-2.757-3.587-7.382-9.408-7.382s-8.391,4.625-9.406,7.382c-.842,2.288-4.229,9.752-12.432,9.752s-11.59-7.464-12.433-9.752c-1.015-2.757-3.587-7.382-9.408-7.382s-8.391,4.625-9.406,7.382c-.842,2.288-4.229,9.752-12.432,9.752V17.133c6.546,0,9.328-6.168,10.023-8.058C1536.593,6.347,1539.755,0,1547.4,0s10.81,6.347,11.816,9.076c.7,1.89,3.475,8.058,10.024,8.058s9.327-6.168,10.023-8.058C1580.27,6.347,1583.434,0,1591.079,0s10.81,6.347,11.816,9.076c.7,1.89,3.479,8.058,10.024,8.058s9.327-6.168,10.024-8.058c1-2.729,4.166-9.076,11.813-9.076s10.81,6.347,11.816,9.076c.7,1.89,3.478,8.058,10.024,8.058v2.6h0Zm-348.919,0c-8.2,0-11.589-7.465-12.431-9.752-1.016-2.757-3.59-7.382-9.408-7.382s-8.391,4.625-9.406,7.382c-.843,2.288-4.233,9.752-12.433,9.752s-11.59-7.464-12.432-9.752c-1.016-2.757-3.59-7.382-9.408-7.382s-8.391,4.625-9.406,7.382c-.843,2.288-4.233,9.752-12.433,9.752s-11.59-7.464-12.432-9.752c-1.016-2.757-3.59-7.382-9.408-7.382s-8.391,4.625-9.408,7.382c-.842,2.288-4.226,9.752-12.431,9.752V17.133c6.548,0,9.328-6.168,10.023-8.058C1187.674,6.347,1190.839,0,1198.483,0s10.809,6.347,11.814,9.076c.7,1.89,3.479,8.058,10.025,8.058s9.328-6.168,10.024-8.058c1.005-2.729,4.17-9.076,11.814-9.076s10.81,6.347,11.814,9.076c.7,1.89,3.479,8.058,10.025,8.058s9.327-6.168,10.024-8.058C1275.03,6.347,1278.193,0,1285.839,0s10.81,6.347,11.814,9.076c.7,1.89,3.479,8.058,10.025,8.058v2.6h0Zm-131.08,0c-8.2,0-11.59-7.465-12.433-9.752-1.014-2.757-3.587-7.382-9.407-7.382s-8.391,4.625-9.406,7.382c-.843,2.288-4.23,9.752-12.433,9.752s-11.59-7.464-12.432-9.752c-1.014-2.757-3.587-7.382-9.407-7.382s-8.391,4.625-9.407,7.382c-.842,2.288-4.228,9.752-12.432,9.752s-11.59-7.464-12.432-9.752c-1.015-2.757-3.587-7.382-9.408-7.382s-8.391,4.625-9.406,7.382c-.842,2.288-4.23,9.752-12.433,9.752V17.133c6.545,0,9.328-6.168,10.024-8.058C1056.593,6.347,1059.756,0,1067.4,0s10.81,6.347,11.816,9.076c.7,1.89,3.474,8.058,10.023,8.058s9.327-6.168,10.024-8.058C1100.271,6.347,1103.435,0,1111.08,0s10.81,6.347,11.816,9.076c.7,1.89,3.478,8.058,10.023,8.058s9.328-6.168,10.024-8.058C1143.949,6.347,1147.112,0,1154.758,0s10.81,6.347,11.816,9.076c.7,1.89,3.474,8.058,10.024,8.058v2.6h0Zm-218.839,0c-8.2,0-11.589-7.465-12.432-9.752-1.014-2.757-3.586-7.382-9.406-7.382s-8.393,4.625-9.408,7.382c-.843,2.288-4.232,9.752-12.433,9.752s-11.589-7.464-12.432-9.752c-1.015-2.757-3.586-7.382-9.406-7.382s-8.393,4.625-9.407,7.382c-.844,2.288-4.233,9.752-12.433,9.752s-11.589-7.464-12.432-9.752c-1.016-2.757-3.589-7.382-9.406-7.382s-8.392,4.625-9.407,7.382c-.843,2.288-4.233,9.752-12.433,9.752V17.133c6.546,0,9.328-6.168,10.024-8.058C837.755,6.347,840.919,0,848.565,0s10.809,6.347,11.814,9.076c.7,1.89,3.477,8.058,10.023,8.058s9.328-6.168,10.025-8.058C881.433,6.347,884.6,0,892.243,0s10.809,6.347,11.814,9.076c.7,1.89,3.476,8.058,10.023,8.058s9.328-6.168,10.025-8.058C925.111,6.347,928.274,0,935.921,0s10.809,6.347,11.814,9.076c.7,1.89,3.479,8.058,10.023,8.058v2.6h0Zm-131.081,0c-8.2,0-11.59-7.465-12.433-9.752-1.014-2.757-3.586-7.382-9.406-7.382s-8.391,4.625-9.408,7.382c-.841,2.288-4.227,9.752-12.431,9.752s-11.59-7.464-12.433-9.752c-1.014-2.757-3.587-7.382-9.406-7.382s-8.391,4.625-9.407,7.382c-.842,2.288-4.228,9.752-12.432,9.752s-11.591-7.464-12.433-9.752c-1.016-2.757-3.588-7.382-9.407-7.382s-8.392,4.625-9.407,7.382c-.842,2.288-4.228,9.752-12.433,9.752V17.133c6.549,0,9.328-6.168,10.024-8.058C706.674,6.347,709.836,0,717.484,0S728.293,6.347,729.3,9.076c.7,1.89,3.474,8.058,10.024,8.058s9.327-6.168,10.023-8.058C750.352,6.347,753.514,0,761.161,0s10.809,6.347,11.815,9.076c.7,1.89,3.477,8.058,10.024,8.058s9.327-6.168,10.023-8.058c1-2.729,4.168-9.076,11.815-9.076s10.809,6.347,11.815,9.076c.7,1.89,3.478,8.058,10.024,8.058v2.6h0Zm-131.081,0c-8.2,0-11.589-7.465-12.431-9.752-1.016-2.757-3.59-7.382-9.408-7.382s-8.391,4.625-9.408,7.382c-.842,2.288-4.227,9.752-12.431,9.752s-11.59-7.464-12.432-9.752c-1.016-2.757-3.59-7.382-9.408-7.382s-8.391,4.625-9.408,7.382c-.841,2.288-4.226,9.752-12.432,9.752s-11.589-7.464-12.431-9.752c-1.016-2.757-3.59-7.382-9.408-7.382s-8.391,4.625-9.408,7.382c-.841,2.288-4.226,9.752-12.431,9.752V17.133c6.546,0,9.328-6.168,10.024-8.058C575.593,6.347,578.757,0,586.4,0s10.81,6.347,11.815,9.076c.7,1.89,3.478,8.058,10.023,8.058s9.328-6.168,10.025-8.058C619.271,6.347,622.435,0,630.08,0S640.889,6.347,641.9,9.076c.7,1.89,3.479,8.058,10.024,8.058s9.327-6.168,10.024-8.058c1-2.729,4.167-9.076,11.814-9.076s10.81,6.347,11.815,9.076c.7,1.89,3.478,8.058,10.024,8.058v2.6h0Zm-218.839,0c-8.2,0-11.588-7.465-12.432-9.752-1.014-2.757-3.586-7.382-9.406-7.382s-8.391,4.625-9.407,7.382c-.842,2.288-4.228,9.752-12.432,9.752s-11.59-7.464-12.434-9.752c-1.014-2.757-3.587-7.382-9.406-7.382s-8.392,4.625-9.407,7.382c-.842,2.288-4.228,9.752-12.432,9.752s-11.59-7.464-12.434-9.752c-1.014-2.757-3.586-7.382-9.406-7.382s-8.392,4.625-9.407,7.382c-.842,2.288-4.228,9.752-12.432,9.752V17.133c6.548,0,9.329-6.168,10.024-8.058C356.755,6.347,359.917,0,367.565,0s10.809,6.347,11.815,9.076c.7,1.89,3.479,8.058,10.024,8.058s9.327-6.168,10.023-8.058C400.432,6.347,403.6,0,411.242,0s10.809,6.347,11.814,9.076c.7,1.89,3.479,8.058,10.025,8.058s9.327-6.168,10.023-8.058C444.11,6.347,447.273,0,454.92,0s10.809,6.347,11.815,9.076c.7,1.89,3.478,8.058,10.024,8.058v2.6h0Zm-131.081,0c-8.2,0-11.588-7.465-12.43-9.752-1.016-2.757-3.588-7.382-9.407-7.382s-8.392,4.625-9.407,7.382c-.843,2.288-4.232,9.752-12.433,9.752s-11.59-7.464-12.432-9.752c-1.016-2.757-3.588-7.382-9.407-7.382s-8.392,4.625-9.407,7.382c-.843,2.288-4.232,9.752-12.433,9.752s-11.59-7.464-12.432-9.752c-1.016-2.757-3.59-7.382-9.407-7.382s-8.392,4.625-9.407,7.382c-.843,2.288-4.232,9.752-12.433,9.752V17.133c6.546,0,9.328-6.168,10.023-8.058C225.674,6.347,228.839,0,236.484,0S247.292,6.347,248.3,9.076c.7,1.89,3.479,8.058,10.025,8.058s9.328-6.168,10.024-8.058C269.352,6.347,272.516,0,280.162,0s10.809,6.347,11.814,9.076c.7,1.89,3.476,8.058,10.024,8.058s9.327-6.168,10.024-8.058C313.03,6.347,316.193,0,323.84,0s10.809,6.347,11.814,9.076c.7,1.89,3.478,8.058,10.023,8.058v2.6h0Zm-131.081,0c-8.2,0-11.589-7.465-12.431-9.752-1.016-2.757-3.588-7.382-9.407-7.382s-8.392,4.625-9.407,7.382c-.842,2.288-4.228,9.752-12.432,9.752s-11.591-7.464-12.433-9.752c-1.016-2.757-3.588-7.382-9.407-7.382s-8.392,4.625-9.407,7.382c-.842,2.288-4.228,9.752-12.432,9.752s-11.591-7.464-12.433-9.752c-1.015-2.757-3.588-7.382-9.408-7.382S97.011,7.231,96,9.987c-.842,2.288-4.228,9.752-12.432,9.752V17.133c6.548,0,9.328-6.168,10.023-8.058C94.593,6.347,97.756,0,105.4,0s10.81,6.347,11.816,9.076c.7,1.89,3.475,8.058,10.024,8.058s9.327-6.168,10.023-8.058C138.271,6.347,141.434,0,149.081,0S159.89,6.347,160.9,9.076c.7,1.89,3.478,8.058,10.024,8.058s9.327-6.168,10.023-8.058C181.949,6.347,185.112,0,192.758,0s10.809,6.347,11.815,9.076c.7,1.89,3.478,8.058,10.024,8.058v2.6h0Zm-131.081,0c-8.2,0-11.589-7.465-12.431-9.752-1.016-2.757-3.59-7.382-9.407-7.382S53.286,7.231,52.27,9.987c-.842,2.288-4.228,9.752-12.432,9.752s-11.59-7.464-12.432-9.752C26.39,7.231,23.817,2.605,18,2.605S9.608,7.231,8.592,9.987a18.4,18.4,0,0,1-2.51,4.6A12.648,12.648,0,0,1,0,19.132v-2.8A10.783,10.783,0,0,0,4.332,12.6,15.776,15.776,0,0,0,6.185,9.076C7.189,6.347,10.351,0,18,0S28.809,6.347,29.814,9.076c.7,1.89,3.478,8.058,10.024,8.058s9.327-6.168,10.024-8.058C50.868,6.347,54.032,0,61.678,0S72.487,6.347,73.492,9.076c.7,1.89,3.478,8.058,10.024,8.058v2.6h0Z" fill="#7e98de"/>
</svg>
