<svg xmlns="http://www.w3.org/2000/svg" width="1966.324" height="19.739" viewBox="0 0 1966.324 19.739">
  <path id="Union_619" data-name="Union 619" d="M1953.892,9.987c-1.015-2.757-3.588-7.382-9.407-7.382s-8.392,4.625-9.407,7.382c-.842,2.288-4.23,9.752-12.433,9.752V17.133c6.547,0,9.328-6.168,10.024-8.058C1933.675,6.347,1936.839,0,1944.485,0s10.81,6.347,11.815,9.076c.7,1.89,3.477,8.058,10.024,8.058v2.605C1958.121,19.739,1954.734,12.275,1953.892,9.987Zm-43.725,0c-1.016-2.757-3.588-7.382-9.407-7.382s-8.392,4.625-9.408,7.382c-.842,2.288-4.229,9.752-12.432,9.752s-11.589-7.464-12.432-9.752c-1.016-2.757-3.588-7.382-9.408-7.382s-8.391,4.625-9.407,7.382c-.842,2.288-4.229,9.752-12.432,9.752s-11.589-7.464-12.432-9.752c-1.016-2.757-3.588-7.382-9.408-7.382s-8.391,4.625-9.407,7.382c-.842,2.288-4.229,9.752-12.432,9.752V17.133c6.548,0,9.328-6.168,10.024-8.058,1-2.729,4.169-9.076,11.814-9.076s10.811,6.347,11.815,9.076c.7,1.89,3.477,8.058,10.024,8.058s9.328-6.168,10.024-8.058C1846.273,6.347,1849.436,0,1857.082,0s10.81,6.347,11.815,9.076c.7,1.89,3.477,8.058,10.024,8.058s9.328-6.168,10.024-8.058c1-2.729,4.169-9.076,11.815-9.076s10.81,6.347,11.814,9.076c.7,1.89,3.477,8.058,10.024,8.058v2.605C1914.4,19.739,1911.01,12.275,1910.167,9.987Zm-131.081,0c-1.015-2.757-3.587-7.382-9.407-7.382s-8.392,4.625-9.407,7.382c-.842,2.288-4.229,9.752-12.433,9.752s-11.589-7.464-12.432-9.752c-1.015-2.757-3.587-7.382-9.407-7.382s-8.392,4.625-9.407,7.382c-.842,2.288-4.229,9.752-12.433,9.752V17.133c6.547,0,9.328-6.168,10.024-8.058C1715.191,6.347,1718.355,0,1726,0s10.81,6.347,11.815,9.076c.7,1.89,3.477,8.058,10.023,8.058s9.328-6.168,10.024-8.058C1758.869,6.347,1762.033,0,1769.679,0s10.81,6.347,11.815,9.076c.7,1.89,3.477,8.058,10.023,8.058v2.605C1783.315,19.739,1779.928,12.275,1779.086,9.987Zm-87.356,0c-1.016-2.757-3.588-7.382-9.407-7.382s-8.392,4.625-9.407,7.382c-.842,2.288-4.23,9.752-12.432,9.752V17.133c6.547,0,9.328-6.168,10.024-8.058C1671.513,6.347,1674.677,0,1682.323,0s10.81,6.347,11.815,9.076c.7,1.89,3.477,8.058,10.023,8.058v2.605C1695.959,19.739,1692.572,12.275,1691.73,9.987Zm-43.726,0c-1.015-2.757-3.587-7.382-9.407-7.382s-8.391,4.625-9.407,7.382c-.842,2.288-4.229,9.752-12.432,9.752s-11.589-7.464-12.433-9.752c-1.015-2.757-3.587-7.382-9.407-7.382s-8.392,4.625-9.407,7.382c-.842,2.288-4.229,9.752-12.432,9.752s-11.589-7.464-12.433-9.752c-1.015-2.757-3.587-7.382-9.407-7.382s-8.392,4.625-9.407,7.382c-.842,2.288-4.229,9.752-12.432,9.752V17.133c6.547,0,9.328-6.168,10.024-8.058,1-2.729,4.168-9.076,11.814-9.076s10.81,6.347,11.815,9.076c.7,1.89,3.477,8.058,10.024,8.058s9.328-6.168,10.023-8.058C1584.11,6.347,1587.273,0,1594.92,0s10.81,6.347,11.815,9.076c.7,1.89,3.477,8.058,10.024,8.058s9.328-6.168,10.024-8.058c1-2.729,4.168-9.076,11.814-9.076s10.81,6.347,11.815,9.076c.7,1.89,3.477,8.058,10.024,8.058v2.605C1652.234,19.739,1648.848,12.275,1648,9.987Zm-131.08,0c-1.015-2.757-3.588-7.382-9.407-7.382s-8.392,4.625-9.407,7.382c-.821,2.227-4.051,9.357-11.786,9.736v.016q-.163,0-.323,0t-.323,0c-8.2,0-11.589-7.464-12.432-9.752-1-2.705-3.492-7.21-9.084-7.377-5.592.167-8.088,4.672-9.084,7.377-.843,2.288-4.23,9.752-12.433,9.752v-.016l-.047,0v.014q-.151,0-.3,0t-.3,0v-.014c-7.769-.352-11.011-7.507-11.833-9.738-1.015-2.757-3.587-7.382-9.407-7.382s-8.391,4.625-9.407,7.382c-.842,2.288-4.229,9.752-12.432,9.752s-11.589-7.464-12.433-9.752c-1.015-2.757-3.587-7.382-9.407-7.382s-8.392,4.625-9.407,7.382c-.842,2.288-4.229,9.752-12.432,9.752s-11.589-7.464-12.433-9.752c-1.015-2.757-3.587-7.382-9.407-7.382s-8.392,4.625-9.407,7.382c-.842,2.288-4.229,9.752-12.432,9.752V17.133c6.547,0,9.328-6.168,10.023-8.058C1322.594,6.347,1325.758,0,1333.4,0s10.81,6.347,11.815,9.076c.7,1.89,3.477,8.058,10.024,8.058s9.328-6.168,10.023-8.058C1366.272,6.347,1369.436,0,1377.082,0s10.81,6.347,11.815,9.076c.7,1.89,3.477,8.058,10.024,8.058s9.328-6.168,10.023-8.058C1409.95,6.347,1413.113,0,1420.76,0s10.81,6.347,11.815,9.076c.686,1.861,3.391,7.869,9.724,8.053,6.333-.184,9.039-6.192,9.724-8.053C1453.029,6.347,1456.193,0,1463.839,0c.109,0,.216,0,.323,0s.214,0,.323,0c7.646,0,10.81,6.347,11.814,9.076.685,1.859,3.385,7.854,9.7,8.053,6.316-.2,9.016-6.194,9.7-8.053C1496.707,6.347,1499.871,0,1507.517,0s10.81,6.347,11.815,9.076c.7,1.89,3.477,8.058,10.023,8.058v2.605C1521.153,19.739,1517.766,12.275,1516.924,9.987Zm-217.838,0c-1.016-2.757-3.588-7.382-9.407-7.382s-8.392,4.625-9.407,7.382c-.843,2.288-4.23,9.752-12.433,9.752s-11.589-7.464-12.432-9.752c-1.016-2.757-3.588-7.382-9.407-7.382s-8.392,4.625-9.407,7.382c-.843,2.288-4.23,9.752-12.433,9.752V17.133c6.547,0,9.328-6.168,10.024-8.058C1235.192,6.347,1238.355,0,1246,0s10.81,6.347,11.814,9.076c.7,1.89,3.477,8.058,10.024,8.058s9.328-6.168,10.024-8.058C1278.869,6.347,1282.033,0,1289.679,0s10.81,6.347,11.814,9.076c.7,1.89,3.477,8.058,10.024,8.058v2.605C1303.315,19.739,1299.929,12.275,1299.086,9.987Zm-87.356,0c-1.016-2.757-3.588-7.382-9.408-7.382s-8.391,4.625-9.407,7.382c-.842,2.288-4.229,9.752-12.432,9.752V17.133c6.547,0,9.328-6.168,10.023-8.058,1.006-2.729,4.17-9.076,11.815-9.076s10.81,6.347,11.815,9.076c.7,1.89,3.477,8.058,10.024,8.058v2.605C1215.959,19.739,1212.573,12.275,1211.73,9.987Zm-43.726,0c-1.015-2.757-3.588-7.382-9.407-7.382s-8.392,4.625-9.407,7.382c-.842,2.288-4.229,9.752-12.433,9.752s-11.589-7.464-12.432-9.752c-1.015-2.757-3.588-7.382-9.407-7.382s-8.392,4.625-9.407,7.382c-.842,2.288-4.229,9.752-12.433,9.752s-11.589-7.464-12.432-9.752c-1.015-2.757-3.588-7.382-9.407-7.382s-8.391,4.625-9.407,7.382c-.842,2.288-4.229,9.752-12.433,9.752V17.133c6.547,0,9.328-6.168,10.024-8.058C1060.432,6.347,1063.6,0,1071.242,0s10.81,6.347,11.815,9.076c.7,1.89,3.477,8.058,10.023,8.058s9.328-6.168,10.024-8.058C1104.11,6.347,1107.274,0,1114.92,0s10.81,6.347,11.815,9.076c.7,1.89,3.477,8.058,10.023,8.058s9.328-6.168,10.024-8.058C1147.788,6.347,1150.952,0,1158.6,0s10.81,6.347,11.815,9.076c.7,1.89,3.477,8.058,10.024,8.058v2.605C1172.234,19.739,1168.847,12.275,1168,9.987Zm-131.081,0c-1.015-2.757-3.587-7.382-9.407-7.382s-8.391,4.625-9.407,7.382c-.842,2.288-4.229,9.752-12.432,9.752-.119,0-.237,0-.354,0v0c-8.2,0-11.589-7.464-12.433-9.752-1-2.729-3.535-7.288-9.229-7.38-5.695.093-8.225,4.652-9.23,7.38-.842,2.288-4.229,9.752-12.432,9.752v0c-.117,0-.235,0-.354,0V17.133c6.547,0,9.328-6.168,10.023-8.058C972.675,6.347,975.839,0,983.485,0h.355c7.646,0,10.809,6.347,11.814,9.076.7,1.89,3.477,8.058,10.024,8.058s9.328-6.168,10.024-8.058C1016.708,6.347,1019.87,0,1027.516,0s10.81,6.347,11.815,9.076c.7,1.89,3.477,8.058,10.024,8.058v2.605C1041.153,19.739,1037.767,12.275,1036.923,9.987Zm-87.756,0c-1.015-2.757-3.588-7.382-9.407-7.382s-8.392,4.625-9.407,7.382c-.843,2.288-4.23,9.752-12.433,9.752s-11.589-7.464-12.432-9.752c-1.015-2.757-3.588-7.382-9.407-7.382s-8.392,4.625-9.407,7.382c-.843,2.288-4.23,9.752-12.433,9.752s-11.589-7.464-12.432-9.752c-1.016-2.757-3.588-7.382-9.407-7.382S844.013,7.231,843,9.987c-.843,2.288-4.23,9.752-12.433,9.752V17.133c6.548,0,9.328-6.168,10.024-8.058C841.595,6.347,844.758,0,852.4,0s10.81,6.347,11.815,9.076c.7,1.89,3.476,8.058,10.023,8.058s9.328-6.168,10.024-8.058C885.272,6.347,888.436,0,896.082,0s10.81,6.347,11.815,9.076c.7,1.89,3.477,8.058,10.023,8.058s9.328-6.168,10.024-8.058C928.95,6.347,932.114,0,939.76,0s10.81,6.347,11.814,9.076c.7,1.89,3.478,8.058,10.024,8.058v2.605C953.4,19.739,950.009,12.275,949.167,9.987Zm-131.081,0c-1.015-2.757-3.587-7.382-9.407-7.382s-8.391,4.625-9.407,7.382c-.842,2.288-4.229,9.752-12.432,9.752s-11.589-7.464-12.433-9.752C773.393,7.231,770.82,2.605,765,2.605s-8.391,4.625-9.407,7.382c-.842,2.288-4.229,9.752-12.432,9.752V17.133c6.547,0,9.328-6.168,10.023-8.058C754.191,6.347,757.354,0,765,0s10.81,6.347,11.815,9.076c.7,1.89,3.477,8.058,10.024,8.058s9.328-6.168,10.023-8.058C797.869,6.347,801.032,0,808.679,0s10.81,6.347,11.815,9.076c.7,1.89,3.477,8.058,10.024,8.058v2.605C822.316,19.739,818.928,12.275,818.086,9.987Zm-87.356,0c-1.015-2.757-3.587-7.382-9.407-7.382s-8.392,4.625-9.407,7.382c-.842,2.288-4.23,9.752-12.433,9.752V17.133c6.547,0,9.328-6.168,10.024-8.058C710.513,6.347,713.677,0,721.323,0s10.81,6.347,11.815,9.076c.7,1.89,3.477,8.058,10.024,8.058v2.605C734.959,19.739,731.572,12.275,730.73,9.987Zm-43.725,0c-1.016-2.757-3.588-7.382-9.407-7.382s-8.392,4.625-9.408,7.382c-.842,2.288-4.229,9.752-12.432,9.752s-11.589-7.464-12.432-9.752c-1.016-2.757-3.588-7.382-9.408-7.382s-8.391,4.625-9.407,7.382c-.842,2.288-4.229,9.752-12.432,9.752s-11.589-7.464-12.432-9.752c-1.016-2.757-3.588-7.382-9.408-7.382s-8.391,4.625-9.407,7.382c-.842,2.288-4.229,9.752-12.432,9.752V17.133c6.547,0,9.328-6.168,10.024-8.058C579.433,6.347,582.6,0,590.242,0s10.811,6.347,11.815,9.076c.7,1.89,3.477,8.058,10.024,8.058s9.328-6.168,10.024-8.058C623.111,6.347,626.274,0,633.919,0s10.81,6.347,11.815,9.076c.7,1.89,3.477,8.058,10.024,8.058s9.328-6.168,10.024-8.058C666.788,6.347,669.952,0,677.6,0s10.81,6.347,11.814,9.076c.7,1.89,3.477,8.058,10.024,8.058v2.605C691.234,19.739,687.848,12.275,687.005,9.987Zm-131.081,0c-1.015-2.757-3.587-7.382-9.407-7.382s-8.392,4.625-9.407,7.382c-.842,2.288-4.229,9.752-12.433,9.752-.119,0-.237,0-.354,0v0c-8.2,0-11.589-7.464-12.432-9.752-1-2.729-3.536-7.288-9.23-7.38-5.694.093-8.225,4.652-9.23,7.38-.842,2.288-4.229,9.752-12.433,9.752v0c-.117,0-.235,0-.354,0V17.133c6.548,0,9.328-6.168,10.024-8.058C491.675,6.347,494.839,0,502.485,0h.354c7.646,0,10.81,6.347,11.815,9.076.7,1.89,3.477,8.058,10.023,8.058s9.329-6.168,10.024-8.058C535.707,6.347,538.87,0,546.517,0s10.81,6.347,11.815,9.076c.7,1.89,3.477,8.058,10.023,8.058v2.605C560.153,19.739,556.766,12.275,555.924,9.987Zm-87.757,0c-1.015-2.757-3.587-7.382-9.407-7.382s-8.391,4.625-9.407,7.382c-.842,2.288-4.229,9.752-12.432,9.752s-11.589-7.464-12.433-9.752c-1.015-2.757-3.587-7.382-9.407-7.382s-8.392,4.625-9.407,7.382c-.842,2.288-4.229,9.752-12.432,9.752s-11.589-7.464-12.433-9.752c-1.015-2.757-3.587-7.382-9.407-7.382S363.012,7.231,362,9.987c-.842,2.288-4.229,9.752-12.432,9.752V17.133c6.548,0,9.328-6.168,10.024-8.058C360.594,6.347,363.758,0,371.4,0s10.81,6.347,11.815,9.076c.7,1.89,3.477,8.058,10.024,8.058s9.328-6.168,10.024-8.058c1-2.729,4.168-9.076,11.814-9.076s10.81,6.347,11.815,9.076c.7,1.89,3.477,8.058,10.024,8.058s9.328-6.168,10.024-8.058C447.95,6.347,451.113,0,458.76,0s10.81,6.347,11.815,9.076c.7,1.89,3.477,8.058,10.024,8.058v2.605C472.4,19.739,469.01,12.275,468.167,9.987Zm-131.081,0c-1.015-2.757-3.588-7.382-9.407-7.382s-8.392,4.625-9.407,7.382c-.843,2.288-4.23,9.752-12.433,9.752s-11.589-7.464-12.432-9.752C292.393,7.231,289.82,2.605,284,2.605s-8.392,4.625-9.407,7.382c-.843,2.288-4.23,9.752-12.433,9.752V17.133c6.548,0,9.329-6.168,10.024-8.058C273.191,6.347,276.355,0,284,0s10.81,6.347,11.815,9.076c.7,1.89,3.476,8.058,10.023,8.058s9.328-6.168,10.024-8.058C316.869,6.347,320.033,0,327.679,0s10.81,6.347,11.814,9.076c.7,1.89,3.478,8.058,10.024,8.058v2.605C341.315,19.739,337.928,12.275,337.086,9.987Zm-87.356,0c-1.016-2.757-3.588-7.382-9.407-7.382s-8.392,4.625-9.407,7.382c-.843,2.288-4.23,9.752-12.433,9.752V17.133c6.548,0,9.328-6.168,10.024-8.058C229.514,6.347,232.677,0,240.323,0s10.809,6.347,11.814,9.076c.7,1.89,3.477,8.058,10.024,8.058v2.605C253.959,19.739,250.573,12.275,249.73,9.987ZM206,9.987c-1.015-2.757-3.587-7.382-9.407-7.382s-8.392,4.625-9.407,7.382c-.842,2.288-4.229,9.752-12.432,9.752s-11.59-7.464-12.433-9.752c-1.015-2.757-3.587-7.382-9.407-7.382s-8.392,4.625-9.407,7.382c-.842,2.288-4.229,9.752-12.432,9.752s-11.59-7.464-12.433-9.752c-1.015-2.757-3.587-7.382-9.407-7.382s-8.392,4.625-9.407,7.382c-.842,2.288-4.229,9.752-12.432,9.752V17.133c6.547,0,9.328-6.168,10.023-8.058C98.432,6.347,101.6,0,109.242,0s10.81,6.347,11.815,9.076c.7,1.89,3.477,8.058,10.024,8.058s9.328-6.168,10.023-8.058C142.11,6.347,145.273,0,152.92,0s10.81,6.347,11.815,9.076c.7,1.89,3.477,8.058,10.024,8.058s9.328-6.168,10.023-8.058C185.788,6.347,188.951,0,196.6,0s10.81,6.347,11.815,9.076c.7,1.89,3.477,8.058,10.024,8.058v2.605C210.234,19.739,206.847,12.275,206,9.987Zm-131.081,0c-1.016-2.757-3.588-7.382-9.407-7.382S57.126,7.231,56.11,9.987c-.842,2.288-4.229,9.752-12.432,9.752S32.089,12.275,31.246,9.987c-1.016-2.757-3.588-7.382-9.407-7.382s-8.392,4.625-9.408,7.382C11.589,12.275,8.2,19.739,0,19.739V17.133c6.548,0,9.328-6.168,10.024-8.058C11.029,6.347,14.193,0,21.839,0s10.81,6.347,11.814,9.076c.7,1.89,3.477,8.058,10.024,8.058S53.006,10.966,53.7,9.076C54.707,6.347,57.871,0,65.517,0s10.81,6.347,11.814,9.076c.7,1.89,3.477,8.058,10.024,8.058v2.605C79.153,19.739,75.767,12.275,74.924,9.987Z" fill="#7e98de"/>
</svg>
